<?xml version="1.0" standalone="no"?>
<!DOCTYPE svg PUBLIC "-//W3C//DTD SVG 1.1//EN" "http://www.w3.org/Graphics/SVG/1.1/DTD/svg11.dtd" >
<svg xmlns="http://www.w3.org/2000/svg">
<metadata></metadata>
<defs>
<font id="primerbmi" horiz-adv-x="940" >
<font-face units-per-em="2048" ascent="1434" descent="-614" />
<missing-glyph horiz-adv-x="495" />
<glyph horiz-adv-x="0" />
<glyph unicode="&#xd;" horiz-adv-x="495" />
<glyph horiz-adv-x="495" />
<glyph unicode=" "  horiz-adv-x="495" />
<glyph unicode="&#x09;" horiz-adv-x="495" />
<glyph unicode="&#xa0;" horiz-adv-x="495" />
<glyph unicode="!" horiz-adv-x="540" d="M139 137q0 -61 37.5 -103t91.5 -42q55 0 94 42t39 103q0 60 -39.5 103t-93.5 43t-91.5 -43t-37.5 -103zM180 453q0 -97 88 -97t88 97v827q0 102 -88 102t-88 -102v-827z" />
<glyph unicode="&#x22;" horiz-adv-x="659" d="M113 971q0 -101 88 -101t88 101v307q0 104 -88 104t-88 -104v-307zM391 971q0 -101 88 -101t88 101v307q0 104 -88 104t-88 -104v-307z" />
<glyph unicode="#" horiz-adv-x="1234" d="M82 438q0 -94 86 -94h129v-248q0 -96 84 -96q88 0 88 96v248h295v-246q0 -98 86 -98q88 0 88 98v246h125q90 0 90 94t-90 94h-125v332h125q90 0 90 94q0 95 -90 95h-125v227q0 102 -88 102q-86 0 -86 -102v-227h-295v229q0 100 -88 100q-84 0 -84 -100v-229h-129 q-86 0 -86 -95q0 -94 86 -94h129v-332h-129q-86 0 -86 -94zM469 532v332h295v-332h-295z" />
<glyph unicode="$" horiz-adv-x="950" d="M102 315q0 -31 19 -75q33 -71 78 -119q101 -98 223 -119v-55q0 -82 74 -82q73 0 73 82v61q126 27 205 133q74 104 74 236q0 162 -96 282q-55 65 -183 154v358q39 -31 58 -67q27 -55 75 -55q33 0 57.5 24.5t24.5 63.5q0 44 -28 90q-64 104 -187 141v64q0 79 -73 79 q-74 0 -74 -79v-58q-115 -20 -186.5 -107t-71.5 -204q0 -112 84 -217q60 -75 174 -158v-495q-103 30 -156 153q-10 30 -32 46t-48 16q-32 0 -58 -26.5t-26 -66.5zM340 1065q0 87 82 121v-266q-82 70 -82 145zM569 209v375q105 -85 105 -203q0 -56 -27.5 -102t-77.5 -70z" />
<glyph unicode="%" horiz-adv-x="1226" d="M102 1124q0 -116 80 -196q79 -82 193 -82q111 0 190 82q80 80 80 196q0 114 -80 197q-80 80 -190 80q-113 0 -193 -80q-80 -83 -80 -197zM158 92q0 -32 27.5 -62t64.5 -30q47 0 74 49l690 1186q14 23 14 57q0 33 -27 61.5t-63 28.5q-50 0 -76 -51l-688 -1181 q-16 -29 -16 -58zM279 1124q0 37 27.5 63.5t68.5 26.5q38 0 66 -26.5t28 -63.5q0 -38 -27.5 -64t-66.5 -26q-41 0 -68.5 26t-27.5 64zM582 258q0 -117 80 -197q78 -81 190 -81q114 0 192 81q80 80 80 197q0 114 -80 197q-80 80 -192 80q-110 0 -190 -80q-80 -83 -80 -197z M758 258q0 37 28 63.5t66 26.5q41 0 68.5 -26.5t27.5 -63.5q0 -38 -27.5 -64t-68.5 -26q-39 0 -66.5 26t-27.5 64z" />
<glyph unicode="&#x26;" horiz-adv-x="1169" d="M88 358q0 -172 109 -278q103 -100 272 -100q98 0 170 45q86 50 166 159l96 -141q27 -43 74 -43q32 0 60 27.5t28 64.5q0 32 -19 60q-115 168 -129 190q60 93 111 197q45 92 45 133q0 45 -25.5 71.5t-62.5 26.5q-63 0 -86 -72q-48 -119 -92 -190l-184 274q98 82 147 163 t49 175q0 128 -68 204.5t-194 76.5q-270 0 -270 -283q0 -132 102 -299l-80 -63q-102 -81 -160.5 -185.5t-58.5 -212.5zM262 369q0 65 43.5 132.5t110.5 121.5l65 51q130 -199 219 -330q-66 -92 -121 -133t-112 -41q-97 0 -151 53t-54 146zM461 1118q0 92 88 92q46 0 72 -26 t26 -66q0 -51 -28 -91t-95 -99q-63 107 -63 190z" />
<glyph unicode="'" horiz-adv-x="380" d="M102 971q0 -101 88 -101q89 0 89 101v307q0 104 -89 104q-88 0 -88 -104v-307z" />
<glyph unicode="(" horiz-adv-x="673" d="M219 668q0 -491 203 -766q34 -43 59.5 -62.5t59.5 -19.5q75 0 75 86q0 46 -24 76q-197 232 -197 686t197 686q24 30 24 76q0 86 -75 86q-34 0 -59.5 -19.5t-59.5 -62.5q-203 -275 -203 -766z" />
<glyph unicode=")" horiz-adv-x="673" d="M57 -94q0 -86 76 -86q34 0 59.5 19.5t59.5 62.5q203 275 203 766t-203 766q-34 43 -59.5 62.5t-59.5 19.5q-76 0 -76 -86q0 -45 25 -76q197 -232 197 -686t-197 -686q-25 -31 -25 -76z" />
<glyph unicode="*" horiz-adv-x="948" d="M119 455q0 -39 29 -70t65 -31q25 0 55 23l121 106v-247q0 -95 84 -95q88 0 88 95v243l119 -104q30 -23 55 -23q36 0 62 32.5t26 72.5q0 37 -26 63l-183 162l177 158q38 35 38 82q0 38 -23 65t-58 27q-29 0 -66 -29l-121 -106v231q0 98 -88 98q-84 0 -84 -98v-233 l-121 108q-26 23 -55 23q-36 0 -63 -31t-27 -70q0 -37 31 -65l180 -162l-182 -160q-33 -29 -33 -65z" />
<glyph unicode="+" horiz-adv-x="1079" d="M139 690q0 -96 88 -96h224v-219q0 -94 88 -94q90 0 90 94v219h223q88 0 88 94t-88 94h-223v217q0 95 -88 95q-90 0 -90 -95v-217h-224q-88 0 -88 -92z" />
<glyph unicode="," horiz-adv-x="462" d="M102 -86q0 -49 58 -49q38 0 75.5 24.5t65.5 67.5q59 88 59 205q0 67 -36.5 110t-92.5 43q-59 0 -94 -39t-35 -112q0 -38 19 -82q16 -50 16 -82q0 -21 -16 -37q-19 -19 -19 -49z" />
<glyph unicode="-" horiz-adv-x="704" d="M47 690q0 -96 88 -96h434q88 0 88 94t-88 94h-434q-88 0 -88 -92z" />
<glyph unicode="." horiz-adv-x="466" d="M102 137q0 -61 38.5 -103t92.5 -42t93 42t39 103q0 60 -39 103t-93 43t-92.5 -43t-38.5 -103z" />
<glyph unicode="/" horiz-adv-x="903" d="M16 92q0 -32 28 -62t65 -30q43 0 73 49l688 1186q17 39 17 57q0 33 -27 61.5t-63 28.5q-50 0 -76 -51l-690 -1186l2 5q-17 -28 -17 -58z" />
<glyph unicode="0" horiz-adv-x="1234" d="M113 692q0 -139 36.5 -266.5t104.5 -226.5q68 -103 160.5 -161t201.5 -58t203 58t164 161q66 99 102.5 226.5t36.5 266.5q0 136 -36.5 265t-102.5 227q-70 102 -164 159.5t-203 57.5t-201 -57.5t-161 -159.5q-67 -98 -104 -226.5t-37 -265.5zM289 692q0 215 88 363 q89 155 239 155q152 0 244 -155q86 -150 86 -363q0 -214 -86 -364q-93 -156 -244 -156q-150 0 -239 156q-88 148 -88 364z" />
<glyph unicode="1" horiz-adv-x="454" d="M139 96q0 -96 90 -96q86 0 86 96v1186q0 100 -86 100q-90 0 -90 -100v-1186z" />
<glyph unicode="2" horiz-adv-x="880" d="M104 1087q0 -46 24 -72t62 -26q68 0 89 82q19 66 60.5 102.5t98.5 36.5q66 0 106 -42.5t40 -110.5q0 -106 -62 -215l-389 -674q-16 -26 -16 -68q0 -45 26 -72.5t82 -27.5h496q86 0 86 92q0 98 -86 98h-371l322 553q94 163 94 334q0 144 -92 236q-88 88 -236 88 q-192 0 -284 -160q-50 -87 -50 -154z" />
<glyph unicode="3" horiz-adv-x="950" d="M98 373q0 -125 58 -219q105 -174 327 -174q179 0 283 120q96 113 96 295q0 102 -35.5 187.5t-109.5 130.5q137 103 137 282q0 186 -100 297q-98 109 -258 109q-86 0 -157.5 -34.5t-119.5 -96.5q-41 -50 -65.5 -113t-24.5 -123q0 -40 25.5 -69t66.5 -29q66 0 86 80 q17 98 49 139q42 55 140 55q83 0 134.5 -51t51.5 -151q0 -120 -41.5 -165.5t-148.5 -45.5q-89 0 -89 -97q0 -49 20.5 -70.5t72.5 -21.5q105 0 148.5 -47.5t43.5 -163.5q0 -105 -54 -165t-151 -60q-101 0 -155 55.5t-54 145.5q0 46 -24 71t-66 25q-86 0 -86 -96z" />
<glyph unicode="4" horiz-adv-x="1030" d="M123 700q0 -112 98 -112h469v-490q0 -98 86 -98t86 98v490h6q84 0 84 96t-84 96h-6v500q0 102 -86 102t-86 -102v-500h-391v500q0 102 -88 102t-88 -102v-580z" />
<glyph unicode="5" horiz-adv-x="1019" d="M123 315q0 -81 55 -163q54 -75 127 -119q88 -53 207 -53q177 0 299 135q113 129 113 319q0 208 -90 328q-108 137 -308 137q-121 0 -225 -78v369h504q90 0 90 98q0 94 -90 94h-596q-84 0 -84 -94v-626q0 -47 27.5 -79t66.5 -32q35 0 68 33q56 62 106 91.5t119 29.5 q113 0 175.5 -68.5t62.5 -200.5q0 -117 -69.5 -190.5t-176.5 -73.5q-104 0 -162 70q-39 48 -51 96q-18 65 -80 65q-88 0 -88 -88z" />
<glyph unicode="6" horiz-adv-x="993" d="M102 426q0 -217 111 -334q106 -112 281 -112q182 0 294 131q109 125 109 317q0 167 -96 283q-110 123 -283 123q-81 0 -145 -37q122 215 327 420q29 29 29 71q0 41 -25 67.5t-63 26.5q-40 0 -68 -26q-198 -171 -333 -441q-138 -276 -138 -489zM279 436q0 88 58.5 146.5 t154.5 58.5q120 0 178 -68q51 -63 51 -161q0 -107 -59.5 -173.5t-167.5 -66.5q-101 0 -158 66t-57 198z" />
<glyph unicode="7" horiz-adv-x="1054" d="M135 1288q0 -98 92 -98h514l-591 -1047q-13 -21 -13 -51q0 -40 27 -66t63 -26q48 0 76 47l655 1174q13 23 13 55q0 42 -29 74t-86 32h-629q-92 0 -92 -94z" />
<glyph unicode="8" horiz-adv-x="917" d="M102 328q0 -144 101 -248q97 -100 248 -100q168 0 268 114q96 110 96 285q0 111 -59.5 208.5t-192.5 209.5l170 229q29 39 29 82q0 39 -39 119q-86 174 -266 174q-132 0 -211 -92q-82 -92 -82 -236q0 -150 155 -305q-217 -248 -217 -440zM279 346q0 53 40 123 q36 61 136 184q98 -85 141 -151t43 -129q0 -93 -49 -146t-135 -53q-78 0 -127 44.5t-49 127.5zM340 1075q0 56 29.5 95.5t70.5 39.5q48 0 80.5 -20t61.5 -70l-156 -209q-86 86 -86 164z" />
<glyph unicode="9" horiz-adv-x="972" d="M92 999q0 -165 109 -284q111 -121 272 -121q117 0 201 72v-568q0 -98 86 -98q90 0 90 98v895q0 178 -107 295q-107 113 -268 113q-159 0 -274 -125q-109 -122 -109 -277zM268 993q0 89 62 154q60 63 145 63q92 0 148.5 -59.5t56.5 -157.5q0 -85 -59 -147 q-61 -64 -148 -64q-84 0 -145 64q-60 63 -60 147z" />
<glyph unicode=":" horiz-adv-x="540" d="M139 195q0 -61 37.5 -103.5t91.5 -42.5t93.5 42.5t39.5 103.5q0 60 -39.5 102.5t-93.5 42.5t-91.5 -42.5t-37.5 -102.5zM139 692q0 -61 37.5 -103t91.5 -42q55 0 94 42t39 103q0 60 -39.5 103t-93.5 43t-91.5 -43t-37.5 -103z" />
<glyph unicode=";" horiz-adv-x="540" d="M139 692q0 -61 37.5 -103t91.5 -42q55 0 94 42t39 103q0 60 -39.5 103t-93.5 43t-91.5 -43t-37.5 -103zM141 -29q0 -49 58 -49q38 0 75.5 24.5t65.5 67.5q59 88 59 205q0 67 -36.5 110.5t-92.5 43.5q-59 0 -94 -39.5t-35 -112.5q0 -38 19 -82q16 -50 16 -82 q0 -21 -16 -37q-19 -19 -19 -49z" />
<glyph unicode="&#x3c;" horiz-adv-x="1079" d="M139 690q0 -74 68 -100l608 -228q13 -8 41 -8q33 0 58.5 28t25.5 73q0 61 -61 82l-420 153l420 152q61 21 61 84q0 42 -26 70t-58 28q-28 0 -41 -8l-608 -225q-68 -23 -68 -101z" />
<glyph unicode="=" horiz-adv-x="1079" d="M139 518q0 -96 88 -96h625q88 0 88 94t-88 94h-625q-88 0 -88 -92zM139 862q0 -96 88 -96h625q88 0 88 94q0 96 -88 96h-625q-88 0 -88 -94z" />
<glyph unicode="&#x3e;" horiz-adv-x="1079" d="M139 455q0 -45 25.5 -73t58.5 -28q28 0 41 8l608 228q68 26 68 100q0 78 -68 101l-608 225q-13 8 -41 8q-32 0 -58 -28t-26 -70q0 -63 62 -84l420 -152l-420 -153q-62 -21 -62 -82z" />
<glyph unicode="?" horiz-adv-x="874" d="M88 1165q0 -88 88 -88q44 0 78 47q32 45 71 65.5t107 20.5q98 0 150.5 -43.5t52.5 -122.5q0 -40 -17 -86q-28 -64 -131 -153q-45 -39 -71 -78q-82 -113 -82 -281q0 -98 88 -98q90 0 90 101q0 52 10.5 93t32.5 72.5t39.5 49t46.5 41.5q46 37 80 77q49 54 69.5 119.5 t20.5 155.5q0 159 -100.5 251.5t-288.5 92.5q-64 0 -129 -19q-76 -25 -140.5 -83t-64.5 -134zM291 137q0 -61 38.5 -103t92.5 -42t92.5 42t38.5 103q0 60 -38.5 103t-92.5 43t-92.5 -43t-38.5 -103z" />
<glyph unicode="@" horiz-adv-x="1562" d="M102 422q0 -371 205 -576q192 -192 510 -192q52 0 74 23.5t22 72.5q0 42 -23 69t-71 27q-259 0 -403 160q-142 154 -142 402q0 258 166 421q75 73 173.5 112.5t207.5 39.5q229 0 348 -126.5t119 -377.5q0 -140 -51 -217q-48 -72 -113 -72q-34 0 -34 29v492q0 88 -80 88 q-62 0 -74 -60q-65 62 -162 62q-150 0 -242 -107q-92 -106 -92 -262q0 -174 92 -272q91 -97 220 -97q106 0 186 70q29 -127 178 -127q152 0 248 129t96 342q0 153 -47 282.5t-133 223.5q-181 190 -463 190q-141 0 -271.5 -53t-228.5 -151q-101 -101 -158 -240t-57 -305z M604 432q0 86 45.5 137.5t120.5 51.5q70 0 117 -58q43 -56 43 -131q0 -80 -43.5 -134t-116.5 -54q-77 0 -121.5 48.5t-44.5 139.5z" />
<glyph unicode="A" horiz-adv-x="1359" d="M82 231v510q0 141 32 252.5t87 183.5t132 119.5t163 67.5q81 19 174 18h10q171 -1 305 -67t213.5 -197t79.5 -309v-578q0 -101 -75.5 -167t-180.5 -66q-102 0 -179 66.5t-77 166.5v170h-168v-170q0 -100 -77 -166.5t-183 -66.5q-102 0 -179 66.5t-77 166.5zM254 258 q0 -29 23 -57.5t61 -28.5q45 0 65.5 28t20.5 58v244q0 35 19 54t53 19h372q34 0 53 -19t19 -54v-244q0 -30 22.5 -60t59.5 -30q45 0 64.5 28.5t19.5 61.5v518q0 203 -108 319q-108 115 -314 115h-4q-202 -2 -314 -113.5t-112 -324.5v-514z" />
<glyph unicode="B" horiz-adv-x="1331" d="M82 119v1141q0 47 37 83.5t86 36.5h653q112 0 203.5 -57.5t139.5 -146t48 -185.5q0 -104 -28 -174.5t-95 -124.5q58 -55 90.5 -134t32.5 -169q0 -170 -110.5 -281.5t-280.5 -111.5h-653q-49 0 -86 38t-37 85zM254 168h604q104 0 160.5 58t56.5 163q0 83 -56.5 147 t-146.5 70h-34q-53 0 -75 43q-11 22 -11 43.5t11 42.5q22 43 75 43h39q95 6 146.5 61t51.5 152q0 85 -61.5 150t-155.5 65h-604v-1038z" />
<glyph unicode="C" horiz-adv-x="1374" d="M82 690v8q0 94 23 186q24 96 78.5 186.5t132.5 159.5t195 110.5t257 41.5h291q112 0 172.5 -75t60.5 -181q0 -112 -58 -186t-175 -74h-244q-104 0 -160.5 -49t-56.5 -127q0 -80 59 -130t158 -50h225q114 0 174 -74.5t60 -181.5q0 -110 -60.5 -183t-173.5 -73h-370 q-117 0 -215 39.5t-165.5 106.5t-115 156.5t-69.5 187.5t-23 202zM254 690v-11q0 -83 14 -153q15 -75 50 -142t89 -113.5t137 -73.5t189 -27h281q33 0 61.5 19.5t28.5 64.5q0 37 -30 59.5t-60 22.5h-232q-162 0 -260 95.5t-98 258.5q0 159 105.5 254.5t258.5 95.5h244 q30 0 58 20.5t28 65.5q0 38 -28.5 61t-57.5 23h-295q-105 0 -196.5 -44t-153 -117t-97 -166.5t-36.5 -192.5z" />
<glyph unicode="D" horiz-adv-x="1234" d="M102 92q0 -92 88 -92h299q137 0 255 52.5t206 148.5q183 199 183 489q0 144 -47.5 270.5t-135.5 221.5q-89 96 -208.5 148t-258.5 52h-293q-88 0 -88 -94v-1196zM279 190v1000h204q100 0 188.5 -41t155.5 -113q65 -69 100.5 -160.5t35.5 -189.5q0 -97 -36.5 -187.5 t-101.5 -158.5q-66 -71 -153 -110.5t-183 -39.5h-210z" />
<glyph unicode="E" horiz-adv-x="1185" d="M82 143l2 349l2 743q0 62 42 105q42 42 100 42h3h592q124 -3 202.5 -88.5t78.5 -203.5q0 -110 -84 -201q36 -38 58.5 -90.5t23.5 -108.5v-2q0 -110 -84 -201q82 -89 82 -202q-1 -113 -87 -198.5t-196 -88.5l-592 4q-60 0 -101.5 40.5t-41.5 100.5zM260 174l559 -4 q43 0 76 35.5t35 81.5q0 47 -27.5 81.5t-66.5 34.5h-56q-41 0 -64 26.5t-23 58.5t23 58.5t64 26.5h41q43 0 76.5 35t34.5 82q0 46 -33.5 80.5t-77.5 34.5h-41q-41 0 -64 26.5t-23 58.5t23 58.5t64 26.5h43q48 0 79.5 35t31.5 82t-33 80.5t-78 33.5l-563 2v-1034z" />
<glyph unicode="F" horiz-adv-x="950" d="M139 96q0 -96 88 -96t88 96v496h367q90 0 90 96q0 94 -90 94h-367v408h488q86 0 86 98q0 94 -86 94h-578q-86 0 -86 -94v-1192z" />
<glyph unicode="G" horiz-adv-x="1443" d="M102 696q0 -147 45.5 -277.5t128.5 -228.5q83 -100 198.5 -155t252.5 -55t252.5 55t198.5 155q168 204 168 498q0 94 -89 94h-620q-88 0 -88 -92q0 -96 88 -96h526q-25 -189 -139 -303q-122 -119 -297 -119q-198 0 -326 154q-122 147 -122 370q0 224 124 367 q131 147 328 147q96 0 180.5 -37t143.5 -100q31 -31 63 -31q36 0 63 29t27 68q0 81 -159 180q-131 82 -318 82q-134 0 -249.5 -53t-200.5 -150t-132 -227t-47 -275z" />
<glyph unicode="H" horiz-adv-x="1359" d="M82 74v1075q0 100 77 166.5t179 66.5q106 0 183 -66.5t77 -166.5v-209h168v209q0 100 77 166.5t179 66.5q105 0 180.5 -66t75.5 -167l6 -1075q0 -34 -20 -54t-54 -20h-370q-34 0 -54 20t-20 54v360h-168l6 -360q0 -34 -21 -54t-55 -20h-372q-34 0 -54 20t-20 54zM254 172 h170v338q0 46 22 72t60 26h348q40 0 63 -26t23 -72v-338h166v950q0 33 -19.5 61.5t-64.5 28.5q-37 0 -59.5 -30t-22.5 -60v-262q0 -44 -23 -69t-63 -25h-348q-38 0 -60 25t-22 69v262q0 30 -20.5 58t-65.5 28q-38 0 -61 -28.5t-23 -57.5v-950z" />
<glyph unicode="I" horiz-adv-x="675" d="M82 90q0 -40 20 -65t52 -25h368q32 0 52 25t20 65v1059q0 101 -75.5 167t-180.5 66q-102 0 -179 -66.5t-77 -166.5v-1059zM256 174v948q0 29 22 57.5t60 28.5q45 0 65.5 -28t20.5 -58v-948h-168z" />
<glyph unicode="J" horiz-adv-x="1095" d="M59 293q0 -36 23 -74q68 -103 141 -153q135 -86 269 -86q211 0 344 139q137 143 137 377v788q0 98 -88 98t-88 -98v-788q0 -144 -81.5 -234t-221.5 -90q-175 0 -252 150q-21 37 -41 51t-54 14q-38 0 -63 -24.5t-25 -69.5z" />
<glyph unicode="K" horiz-adv-x="1071" d="M139 96q0 -96 90 -96q86 0 86 96v426l529 -495q27 -27 59 -27q35 0 61.5 30.5t26.5 69.5q0 43 -30 70l-580 535l582 514q34 30 34 65q0 37 -30 67.5t-68 30.5q-35 0 -59 -24l-525 -475v399q0 100 -86 100q-90 0 -90 -100v-1186z" />
<glyph unicode="L" horiz-adv-x="1230" d="M82 100v1049q0 100 77 166.5t179 66.5q105 0 180.5 -66t75.5 -167v-637h321q100 0 167 -77t67 -179q0 -105 -66.5 -180.5t-167.5 -75.5h-751q-37 0 -59.5 28t-22.5 72zM256 170h645q26 0 52 23t26 63q0 42 -24 62t-54 20h-356q-63 0 -92 24t-29 87v675q0 32 -23.5 60 t-62.5 28q-41 0 -61.5 -25.5t-20.5 -60.5v-956z" />
<glyph unicode="M" horiz-adv-x="1501" d="M82 233q0 -100 77 -166.5t179 -66.5q105 0 180.5 66t75.5 167v156q77 -51 158 -51q76 0 151 53v-158q0 -97 76.5 -165t181.5 -68t181.5 68.5t76.5 164.5v805q0 150 -105 256.5t-255 106.5q-98 0 -179 -47t-128 -127q-50 80 -132.5 127t-177.5 47q-150 0 -255 -106.5 t-105 -256.5v-805zM256 233v805q0 79 54.5 134t131.5 55q80 0 134.5 -54.5t54.5 -134.5q0 -46 37 -82t84 -36t82.5 36.5t35.5 81.5q0 79 56 134t133 55q78 0 133 -55t55 -134v-805q0 -20 -27.5 -41.5t-58.5 -21.5q-28 0 -57 22t-29 41v365q0 43 -37 80t-82 37q-46 0 -81 -37 t-35 -80q0 -31 -28 -58.5t-60 -27.5q-36 0 -62 26t-28 62v-2q0 42 -37.5 79.5t-79.5 37.5q-43 0 -82 -36.5t-39 -80.5v-365q0 -22 -26.5 -42.5t-59.5 -20.5q-32 0 -57 19t-25 44z" />
<glyph unicode="N" horiz-adv-x="1196" d="M139 98q0 -98 88 -98t88 98v910l549 -949q16 -28 43.5 -43.5t53.5 -15.5q41 0 68.5 29t27.5 86v1167q0 100 -88 100t-88 -100v-907l-549 946q-19 31 -40 46t-54 15q-43 0 -71 -29.5t-28 -84.5v-1170z" />
<glyph unicode="O" horiz-adv-x="1413" d="M102 696q0 -148 42.5 -278t121.5 -228q167 -210 441 -210q134 0 247.5 55t192.5 155q79 98 121.5 228t42.5 278q0 147 -42.5 276.5t-121.5 225.5q-79 97 -192 150t-248 53q-137 0 -249 -53t-192 -150q-79 -96 -121.5 -225.5t-42.5 -276.5zM279 696q0 228 112 367 q121 147 316 147q194 0 315 -147q113 -140 113 -367q0 -226 -113 -370q-121 -154 -315 -154q-195 0 -316 154q-112 142 -112 370z" />
<glyph unicode="P" horiz-adv-x="1243" d="M82 344v887q0 67 45 109t117 42h360h6q128 0 232 -39q106 -40 175.5 -110.5t106.5 -164.5t37 -202q0 -114 -31 -204.5t-96.5 -160.5t-176 -108t-261.5 -39q-7 -356 -252 -356h-4q-258 3 -258 346zM254 264q0 -46 18 -73t68 -27q82 0 82 110l2 107q0 61 44.5 105t106.5 44 h52q167 2 264.5 82.5t97.5 253.5q0 150 -91 246t-210 96h-434v-944z" />
<glyph unicode="Q" horiz-adv-x="1431" d="M102 696q0 -149 44 -279t126 -227q81 -100 194.5 -155t250.5 -55q225 0 391 153l98 -100q33 -33 66 -33q35 0 60.5 29t25.5 65q0 33 -29 70l-106 110q108 181 108 422q0 146 -44 276t-124 226q-83 97 -197.5 150t-248.5 53q-137 0 -250.5 -53t-194.5 -150 q-82 -96 -126 -225.5t-44 -276.5zM279 696q0 227 116 367q124 147 322 147q197 0 321 -147q117 -142 117 -367q0 -159 -65 -286l-82 88q-30 30 -66 30t-62 -28.5t-26 -65.5q0 -38 27 -65l100 -105q-106 -92 -264 -92q-197 0 -322 154q-116 143 -116 370z" />
<glyph unicode="R" horiz-adv-x="1202" d="M139 96q0 -96 88 -96t88 96v496h224l428 -555q34 -37 71 -37q36 0 62 27t26 65q0 33 -18 60l-350 440q169 12 268 125q96 110 96 274q0 168 -94 279q-95 112 -274 112h-527q-88 0 -88 -94v-1192zM315 782v408h439q85 0 138.5 -57t53.5 -146q0 -90 -53.5 -147.5 t-144.5 -57.5h-433z" />
<glyph unicode="S" horiz-adv-x="942" d="M94 307q0 -33 19 -80q65 -121 145 -180q92 -67 219 -67q169 0 275 116q100 109 100 275q0 103 -25 170q-37 99 -143 188q-30 24 -90.5 67.5t-73.5 53.5q-25 15 -78 57q-60 49 -83 86t-23 82q0 66 38 100.5t107 34.5q95 0 146 -94q26 -57 78 -57q32 0 56.5 25t24.5 65 q0 111 -120 194q-85 58 -187 58q-137 0 -229 -92t-92 -236q0 -93 43 -166q73 -129 284 -260q82 -56 133 -110q58 -61 58 -162q0 -85 -51 -142t-148 -57q-87 0 -135.5 37.5t-81.5 124.5q-24 63 -80 63q-37 0 -61.5 -24.5t-24.5 -69.5z" />
<glyph unicode="T" horiz-adv-x="1552" d="M82 1122q0 106 66.5 183t166.5 77l922 2q101 0 167 -75.5t66 -180.5q0 -102 -66.5 -179t-166.5 -77h-205v-636q0 -101 -75.5 -167.5t-180.5 -66.5q-102 0 -179 67t-77 167v636h-205q-100 0 -166.5 74.5t-66.5 175.5zM252 1122q0 -41 23.5 -58t54.5 -17h245q59 0 89 -28 t30 -91v-670q0 -35 20.5 -60.5t61.5 -25.5q39 0 62.5 28t23.5 60v668q0 64 28.5 91.5t90.5 27.5h242q30 0 53.5 19.5t23.5 61.5q0 40 -25 61t-52 21l-893 -2q-26 0 -52 -23t-26 -63z" />
<glyph unicode="U" horiz-adv-x="1359" d="M82 639v510q0 100 77 166.5t179 66.5q106 0 183 -66.5t77 -166.5v-549q0 -29 22 -57.5t60 -28.5q45 0 65.5 28t20.5 58v549q0 100 77 166.5t179 66.5q105 0 180.5 -66t75.5 -167v-578q0 -178 -79.5 -309t-213.5 -197t-305 -67h-10q-94 0 -174 18q-86 20 -163 67.5 t-132 119.5t-87 183.5t-32 252.5zM254 608q0 -213 112 -324.5t314 -113.5h4q206 0 314 115q108 116 108 319v518q0 33 -19.5 61.5t-64.5 28.5q-37 0 -59.5 -30t-22.5 -60v-542q0 -66 -21.5 -114t-59.5 -74.5t-82.5 -39t-96.5 -12.5q-64 0 -120.5 23.5t-96 78t-39.5 131.5 v549q0 30 -20.5 58t-65.5 28q-38 0 -61 -28.5t-23 -57.5v-514z" />
<glyph unicode="V" horiz-adv-x="1173" d="M47 1292q0 -32 8 -45l437 -1175q26 -72 94 -72q67 0 94 70l436 1179q10 27 10 43q0 34 -27 62t-67 28q-54 0 -78 -65l-368 -983l-369 983q-24 65 -76 65q-41 0 -67.5 -28t-26.5 -62z" />
<glyph unicode="W" horiz-adv-x="2078" d="M47 1292q0 -32 8 -45l437 -1175q26 -72 94 -72q67 0 94 70l360 970l359 -968q26 -72 94 -72q67 0 94 70l436 1179q9 18 9 43q0 34 -26.5 62t-66.5 28q-53 0 -77 -65l-369 -983l-369 983q-25 65 -82 65q-38 0 -57 -14.5t-31 -50.5l-368 -983l-369 983q-24 65 -76 65 q-41 0 -67.5 -28t-26.5 -62z" />
<glyph unicode="X" horiz-adv-x="1157" d="M57 92q0 -38 26 -65t62 -27q42 0 74 43l359 510l358 -512q30 -41 74 -41q36 0 63 27t27 65q0 31 -21 58l-387 552l371 529q18 27 18 59q0 37 -26.5 64.5t-61.5 27.5q-45 0 -75 -43l-336 -479l-336 479q-33 43 -74 43q-35 0 -61.5 -27.5t-26.5 -64.5q0 -30 16 -59 l367 -520l-393 -561q-17 -31 -17 -58z" />
<glyph unicode="Y" horiz-adv-x="1107" d="M47 1290q0 -30 19 -59l399 -576v-559q0 -96 88 -96t88 96v559l401 576q19 29 19 59q0 40 -26 66t-62 26q-42 0 -74 -43l-346 -489l-346 489q-30 43 -72 43q-36 0 -62 -26t-26 -66z" />
<glyph unicode="Z" horiz-adv-x="1089" d="M72 1286q0 -96 88 -96h596l-641 -1010q-27 -40 -27 -80q0 -46 26 -73t76 -27h742q86 0 86 94q0 96 -86 96h-600l647 1010q20 33 20 74q0 46 -25 77t-75 31h-739q-88 0 -88 -96z" />
<glyph unicode="[" horiz-adv-x="673" d="M229 -70q0 -94 88 -94h213q86 0 86 94q0 99 -86 99h-124v1280h124q86 0 86 98q0 94 -86 94h-213q-88 0 -88 -94v-1477z" />
<glyph unicode="\" horiz-adv-x="903" d="M16 1292q0 -32 15 -57l690 -1186q27 -49 74 -49q37 0 64.5 30t27.5 62q0 27 -17 58l-688 1181q-34 51 -76 51q-36 0 -63 -28.5t-27 -61.5z" />
<glyph unicode="]" horiz-adv-x="671" d="M57 -70q0 -94 86 -94h211q88 0 88 94v1477q0 94 -88 94h-211q-86 0 -86 -94q0 -98 86 -98h123v-1280h-123q-86 0 -86 -99z" />
<glyph unicode="^" horiz-adv-x="1128" d="M139 666q0 -41 26 -67t60 -26q53 0 84 58l254 497l256 -495q31 -60 84 -60q34 0 60 25.5t26 65.5q0 13 -10 43l-322 610q-38 65 -96 65q-57 0 -92 -65l-319 -608q-11 -29 -11 -43z" />
<glyph unicode="_" horiz-adv-x="808" d="M-53 -133q0 -96 88 -96h741q86 0 86 94q0 96 -86 96h-741q-88 0 -88 -94z" />
<glyph unicode="`" horiz-adv-x="618" d="M139 1178q0 -37 21 -58l159 -207q26 -36 68 -36q36 0 64 29t28 67q0 33 -20 59l-158 205q-33 39 -68 39q-36 0 -65 -29t-29 -69z" />
<glyph unicode="a" d="M92 410q0 -184 103 -308q48 -58 113 -90t138 -32q110 0 187 65q17 -45 78 -45q90 0 90 96v627q0 98 -90 98q-60 0 -78 -47q-78 66 -187 66q-73 0 -138 -32t-113 -89q-103 -124 -103 -309zM268 410q0 113 50.5 176t127.5 63q76 0 127 -60t52 -167v-12q0 -110 -51 -174 t-128 -64q-76 0 -127 64.5t-51 173.5z" />
<glyph unicode="b" horiz-adv-x="937" d="M139 96q0 -96 90 -96q61 0 78 45q77 -65 187 -65q145 0 251 122q101 122 101 308q0 187 -101 309q-105 121 -251 121q-103 0 -179 -58v500q0 100 -86 100q-90 0 -90 -100v-1186zM315 410v12q1 107 52 167t127 60q77 0 127.5 -63t50.5 -176q0 -109 -51 -173.5t-127 -64.5 q-77 0 -128 64t-51 174z" />
<glyph unicode="c" horiz-adv-x="837" d="M92 410q0 -184 103 -308q48 -58 113 -90t138 -32q65 0 126 25t106 69q78 75 78 141q0 41 -25 67.5t-61 26.5q-53 0 -86 -65q-35 -72 -138 -72q-76 0 -127 64.5t-51 173.5q0 113 50.5 176t127.5 63q50 0 80 -16.5t54 -54.5q27 -46 69 -46q36 0 62 29t26 70q0 65 -80 135 q-90 74 -211 74q-73 0 -138 -32t-113 -89q-103 -124 -103 -309z" />
<glyph unicode="d" d="M92 410q0 -184 103 -308q48 -58 113 -90t138 -32q110 0 187 65q17 -45 78 -45q90 0 90 96v1186q0 100 -90 100q-86 0 -86 -100v-500q-76 58 -179 58q-73 0 -138 -32t-113 -89q-103 -124 -103 -309zM268 410q0 113 50.5 176t127.5 63q76 0 127 -60t52 -167v-12 q0 -110 -51 -174t-128 -64q-76 0 -127 64.5t-51 173.5z" />
<glyph unicode="e" horiz-adv-x="870" d="M92 410q0 -184 103 -308q48 -58 113 -90t138 -32q148 0 234 92q76 81 76 143q0 41 -25 67.5t-61 26.5q-53 0 -86 -65q-35 -72 -138 -72q-70 0 -120 60.5t-56 158.5h447q38 0 58 26t20 62q0 41 -23 107q-41 117 -128.5 185.5t-197.5 68.5q-165 0 -264 -142 q-90 -128 -90 -288zM299 553q30 53 63.5 76.5t83.5 23.5q96 0 150 -100h-297z" />
<glyph unicode="f" horiz-adv-x="806" d="M41 727q0 -94 88 -94h78v-539q0 -94 88 -94t88 94v539h119q88 0 88 92q0 96 -88 96h-119v230q0 159 117 159q58 0 81 -25t35 -81q15 -74 82 -74q37 0 59.5 24t22.5 70q0 52 -24 106.5t-60 90.5q-77 80 -196 80q-142 0 -217.5 -91.5t-75.5 -258.5v-230h-78q-88 0 -88 -94z " />
<glyph unicode="g" d="M92 410q0 -184 103 -308q48 -58 113 -90t138 -32q102 0 179 59v-229q0 -240 -179 -240q-102 0 -137 72q-31 65 -84 65q-36 0 -61 -26.5t-25 -67.5q0 -59 80 -139q101 -95 227 -95q81 0 148.5 31.5t112.5 89.5q94 121 94 310v915q0 96 -90 96q-61 0 -78 -45 q-76 64 -187 64q-73 0 -138 -32t-113 -89q-103 -124 -103 -309zM268 410q0 113 50.5 176t127.5 63q78 0 128.5 -63t50.5 -176v-13q-1 -103 -52 -164t-127 -61t-127 64.5t-51 173.5z" />
<glyph unicode="h" horiz-adv-x="921" d="M139 92q0 -92 86 -92q90 0 90 92v389q0 71 44 119.5t116 48.5q148 0 148 -168v-389q0 -48 20 -70t66 -22q90 0 90 92v389q0 359 -312 359q-102 0 -172 -49v497q0 94 -90 94q-86 0 -86 -94v-1196z" />
<glyph unicode="i" horiz-adv-x="516" d="M139 1032q0 -56 34 -94.5t85 -38.5q50 0 84.5 39t34.5 94t-34.5 93t-84.5 38q-51 0 -85 -37.5t-34 -93.5zM170 96q0 -96 88 -96t88 96v629q0 96 -88 96t-88 -96v-629z" />
<glyph unicode="j" horiz-adv-x="552" d="M-188 -344q0 -53 23 -107t59 -90q80 -80 196 -80q142 0 217.5 91t75.5 258v997q0 96 -88 96t-88 -96v-997q0 -158 -117 -158q-56 0 -79 26.5t-36 79.5q-18 74 -84 74q-36 0 -57.5 -25t-21.5 -69zM176 1032q0 -55 34.5 -94t84.5 -39q51 0 85 38.5t34 94.5t-34 93.5 t-85 37.5q-50 0 -84.5 -38t-34.5 -93z" />
<glyph unicode="k" horiz-adv-x="815" d="M139 92q0 -92 90 -92q86 0 86 92v154l297 -226q29 -20 56 -20q35 0 62.5 29t27.5 67q0 50 -39 76l-330 238l326 239q35 27 35 74q0 37 -27.5 67.5t-63.5 30.5q-27 0 -53 -20l-291 -226v713q0 94 -86 94q-90 0 -90 -94v-1196z" />
<glyph unicode="l" horiz-adv-x="454" d="M139 96q0 -96 90 -96q86 0 86 96v1186q0 100 -86 100q-90 0 -90 -100v-1186z" />
<glyph unicode="m" horiz-adv-x="1404" d="M139 92q0 -92 86 -92q90 0 90 92v389q0 71 44 119.5t116 48.5q148 0 148 -168v-389q0 -48 20 -70t66 -22q90 0 90 92v389q0 68 46 118t116 50q147 0 147 -168v-389q0 -48 20 -70t66 -22q88 0 88 92v389q0 359 -311 359q-158 0 -240 -105q-80 105 -244 105 q-112 0 -184 -58q-17 39 -78 39q-86 0 -86 -94v-635z" />
<glyph unicode="n" horiz-adv-x="921" d="M139 92q0 -92 86 -92q90 0 90 92v389q0 71 44 119.5t116 48.5q148 0 148 -168v-389q0 -48 20 -70t66 -22q90 0 90 92v389q0 359 -312 359q-112 0 -184 -58q-17 39 -78 39q-86 0 -86 -94v-635z" />
<glyph unicode="o" horiz-adv-x="892" d="M92 410q0 -184 103 -308q48 -58 113 -90t138 -32t138.5 32t113.5 90q103 124 103 308q0 185 -103 309q-48 57 -113.5 89t-138.5 32t-138 -32t-113 -89q-103 -124 -103 -309zM268 410q0 113 50.5 176t127.5 63q78 0 128.5 -63t50.5 -176q0 -110 -51 -174t-128 -64 q-76 0 -127 64.5t-51 173.5z" />
<glyph unicode="p" horiz-adv-x="937" d="M139 -502q0 -98 90 -98q86 0 86 98v541q77 -59 179 -59q145 0 251 122q101 122 101 308q0 187 -101 309q-105 121 -251 121q-111 0 -187 -64q-17 45 -78 45q-90 0 -90 -96v-1227zM315 397v13q0 113 50.5 176t128.5 63q77 0 127.5 -63t50.5 -176q0 -109 -51 -173.5 t-127 -64.5t-127 61t-52 164z" />
<glyph unicode="q" horiz-adv-x="950" d="M92 410q0 -184 103 -308q48 -58 113 -90t138 -32q102 0 179 59v-311q0 -167 75.5 -258t217.5 -91q116 0 196 80q30 30 60 99q22 58 22 98q0 44 -22 69t-58 25q-66 0 -84 -74q-6 -27 -12 -42.5t-18 -32t-33 -24t-51 -7.5q-117 0 -117 158v997q0 96 -90 96q-61 0 -78 -45 q-76 64 -187 64q-73 0 -138 -32t-113 -89q-103 -124 -103 -309zM268 410q0 113 50.5 176t127.5 63q78 0 128.5 -63t50.5 -176v-13q-1 -103 -52 -164t-127 -61t-127 64.5t-51 173.5z" />
<glyph unicode="r" horiz-adv-x="770" d="M139 98q3 -98 88 -98q88 0 88 102v422q17 59 50 92t75 33q49 0 73.5 -14.5t41.5 -52.5q24 -58 86 -58q31 0 53.5 26t22.5 68q0 71 -60 138q-81 84 -188 84q-95 0 -164 -66q-11 28 -28 40.5t-50 12.5q-88 0 -88 -98v-631z" />
<glyph unicode="s" horiz-adv-x="782" d="M94 258q0 -119 103 -207q83 -71 213 -71q131 0 211 83q75 75 75 193q0 131 -88 186q-12 8 -53 29q-74 28 -131 47q-27 7 -55 19q-34 13 -45 26t-11 37q0 74 86 74q60 0 101 -62q27 -47 84 -47q36 0 61 26t25 68q0 54 -37 93q-29 35 -88.5 61.5t-138.5 26.5 q-126 0 -197.5 -66.5t-71.5 -173.5q0 -87 33 -137q49 -78 201 -119q35 -10 51.5 -15.5t44.5 -17.5t40.5 -26.5t12.5 -32.5q0 -41 -27 -68.5t-83 -27.5q-59 0 -93.5 30.5t-42.5 77.5q-8 45 -30 65.5t-64 20.5q-41 0 -63.5 -25t-22.5 -67z" />
<glyph unicode="t" horiz-adv-x="677" d="M41 725q0 -92 88 -92h117v-535q0 -98 86 -98q90 0 90 98v535h129q86 0 86 92q0 96 -86 96h-129v166q0 94 -90 94q-86 0 -86 -94v-166h-117q-88 0 -88 -96z" />
<glyph unicode="u" horiz-adv-x="923" d="M123 340q0 -360 313 -360q111 0 182 59q20 -39 80 -39q86 0 86 92v635q0 94 -86 94q-90 0 -90 -94v-387q0 -73 -44 -120.5t-118 -47.5q-76 0 -111.5 42t-35.5 126v387q0 50 -19.5 72t-66.5 22q-90 0 -90 -94v-387z" />
<glyph unicode="v" horiz-adv-x="847" d="M47 729q0 -32 8 -45l275 -614q17 -34 42.5 -52t51.5 -18t51.5 18t42.5 52l273 614q10 33 10 45q0 40 -27.5 66t-60.5 26q-57 0 -80 -55l-209 -494l-211 494q-23 55 -78 55q-34 0 -61 -25.5t-27 -66.5z" />
<glyph unicode="w" horiz-adv-x="1425" d="M47 729q0 -32 8 -45l275 -614q17 -34 42.5 -52t51.5 -18t51.5 18t42.5 52l195 440l194 -440q17 -34 42.5 -52t51.5 -18t52.5 18t42.5 52l272 614q10 23 10 45q0 41 -27 66.5t-61 25.5q-57 0 -80 -55l-209 -487l-210 487q-23 55 -78 55q-57 0 -80 -55l-209 -487l-211 487 q-23 55 -78 55q-34 0 -61 -25.5t-27 -66.5z" />
<glyph unicode="x" horiz-adv-x="872" d="M57 92q0 -38 26 -65t62 -27q35 0 66 31l223 245l228 -245q31 -31 65 -31q36 0 62 27t26 65q0 44 -24 68l-226 248l226 247q24 24 24 68q0 42 -25 70t-63 28q-30 0 -65 -35l-220 -243l-219 243q-30 35 -67 35t-62.5 -28.5t-25.5 -69.5q0 -44 26 -70l217 -239l-227 -252 q-27 -27 -27 -70z" />
<glyph unicode="y" horiz-adv-x="833" d="M47 729q0 -18 10 -45l273 -565l-258 -580q-9 -15 -9 -45q0 -41 26.5 -67.5t60.5 -26.5q52 0 75 53l553 1237q8 16 8 41q0 37 -27.5 63.5t-60.5 26.5q-50 0 -71 -49l-199 -453l-215 449q-24 53 -78 53q-34 0 -61 -25.5t-27 -66.5z" />
<glyph unicode="z" horiz-adv-x="903" d="M80 725q0 -94 88 -94h364l-405 -445q-33 -36 -33 -82q0 -44 29.5 -74t75.5 -30h538q86 0 86 94q0 96 -86 96h-366l409 445q29 37 29 78q0 44 -29 76t-78 32h-534q-88 0 -88 -96z" />
<glyph unicode="{" horiz-adv-x="671" d="M188 668q0 -42 26 -66t65 -24q24 0 34 -39q6 -25 6 -74q0 -98 -14 -178q-16 -91 -16 -172q0 -126 54.5 -194t162.5 -68q44 0 68 27.5t24 66.5q0 38 -22.5 65t-61.5 27q-29 0 -40 21t-11 65q0 87 16 178q17 97 17 174q0 115 -54 191q54 76 54 192q0 88 -17 182 q-16 88 -16 170q0 42 11 64t40 22q39 0 61.5 27.5t22.5 65.5q0 39 -24 66.5t-68 27.5q-108 0 -162.5 -68t-54.5 -194q0 -90 16 -181q14 -80 14 -172q0 -48 -6 -71q-10 -39 -34 -39q-39 0 -65 -25t-26 -67z" />
<glyph unicode="|" horiz-adv-x="821" d="M322 -287q0 -96 90 -96q86 0 86 96v1762q0 98 -86 98q-90 0 -90 -98v-1762z" />
<glyph unicode="}" horiz-adv-x="671" d="M74 -53q0 -39 24 -66.5t68 -27.5q108 0 162.5 68t54.5 194q0 105 -14 182q-17 93 -17 168q0 49 6 74q10 39 35 39q39 0 64.5 24t25.5 66t-25.5 67t-64.5 25q-25 0 -35 39q-6 23 -6 71q0 81 17 181q14 80 14 172q0 126 -54.5 194t-162.5 68q-44 0 -68 -27.5t-24 -66.5 q0 -38 22.5 -65.5t61.5 -27.5q29 0 40 -22t11 -64q0 -87 -16 -178q-17 -97 -17 -174q0 -115 53 -192q-53 -69 -53 -191q0 -89 17 -182q16 -88 16 -170q0 -44 -11 -65t-40 -21q-39 0 -61.5 -27t-22.5 -65z" />
<glyph unicode="~" horiz-adv-x="1079" d="M139 625q0 -45 25.5 -70t60.5 -25q38 0 64 26t26 73q0 96 62 96q22 0 43.5 -17t53.5 -51q6 -7 9 -10q53 -64 104 -100.5t118 -36.5q100 0 165 74q70 77 70 211q0 45 -25.5 69.5t-60.5 24.5q-38 0 -64 -25.5t-26 -72.5q0 -97 -62 -97q-18 0 -38 13t-31 24.5t-35 40.5 q-28 33 -45.5 50.5t-47 41t-61.5 34.5t-69 11q-101 0 -166 -71q-70 -80 -70 -213z" />
<glyph unicode="&#xa1;" horiz-adv-x="540" d="M139 911q0 -61 38.5 -103t92.5 -42t92.5 42t38.5 103t-38.5 103.5t-92.5 42.5t-92.5 -42.5t-38.5 -103.5zM182 -231q0 -103 88 -103t88 103v827q0 96 -88 96t-88 -96v-827z" />
<glyph unicode="&#xa2;" horiz-adv-x="829" d="M92 686q0 -164 82 -283q80 -116 209 -141v-194q0 -68 63 -68q62 0 62 68v194q105 23 170 88q78 75 78 142q0 41 -25 67.5t-61 26.5q-52 0 -86 -66q-26 -48 -76 -63v461q44 -15 72 -64q26 -45 69 -45q36 0 62 28.5t26 69.5q0 65 -80 135q-65 53 -149 68v201q0 71 -62 71 q-63 0 -63 -71v-201q-129 -25 -209 -141q-82 -119 -82 -283zM268 686q0 85 31 143t84 82v-450q-53 24 -84 82t-31 143z" />
<glyph unicode="&#xa3;" horiz-adv-x="1191" d="M61 231q0 -111 58.5 -180t171.5 -69q65 0 123 39.5t96 99.5q75 -63 152 -97t174 -34t176 49t127 151q10 27 10 43q0 41 -25 67t-59 26q-51 0 -82 -52q-29 -48 -61 -71t-84 -23q-66 0 -133 31.5t-117 81.5q12 43 12 88q0 93 -35 180h269q88 0 88 94q0 97 -88 97h-361 q-25 51 -38.5 82t-25.5 76.5t-12 84.5q0 103 76 162q68 53 168 53q123 0 192.5 -63.5t69.5 -173.5q0 -44 27 -69t61 -25q35 0 61.5 25.5t26.5 72.5q0 196 -129 315q-121 109 -299 109q-195 0 -313 -121q-117 -117 -117 -315q0 -92 55 -213h-30q-88 0 -88 -95q0 -96 88 -96 h129q36 -74 47 -129q-80 35 -135 35q-93 0 -160 -70q-66 -69 -66 -166zM238 236q0 18 16 29t37 11q38 0 86 -32q-23 -35 -42.5 -52.5t-43.5 -17.5q-53 0 -53 62z" />
<glyph unicode="&#xa4;" horiz-adv-x="1253" d="M139 291q0 -38 27.5 -68t62.5 -30q28 0 64 28l121 121q99 -61 213 -61t213 61l123 -119q31 -28 59 -28q36 0 64 29.5t28 66.5q0 40 -29 69l-116 113q61 99 61 217q0 116 -59 211l114 115q27 27 27 65q0 39 -28 69t-64 30q-33 0 -59 -29l-117 -117q-101 66 -217 66 t-217 -66l-115 117q-29 29 -62 29q-36 0 -64 -30t-28 -69q0 -30 29 -67l111 -113q-58 -94 -58 -211q0 -120 60 -217l-117 -119q-27 -27 -27 -63zM399 690q0 88 68 156q65 65 160 65q94 0 159 -65q68 -68 68 -156q0 -90 -68 -158q-65 -65 -159 -65q-95 0 -160 65 q-68 68 -68 158z" />
<glyph unicode="&#xa5;" horiz-adv-x="1107" d="M47 1290q0 -30 19 -59l350 -506h-234q-88 0 -88 -92q0 -96 88 -96h283v-101h-283q-88 0 -88 -94t88 -94h283v-152q0 -96 88 -96t88 96v152h283q88 0 88 92q0 96 -88 96h-283v101h283q88 0 88 94t-88 94h-234l352 506q19 29 19 59q0 40 -26 66t-62 26q-42 0 -74 -43 l-346 -489l-346 489q-30 43 -72 43q-36 0 -62 -26t-26 -66z" />
<glyph unicode="&#xa6;" horiz-adv-x="821" d="M322 -287q0 -96 90 -96q86 0 86 96v709q0 100 -86 100q-90 0 -90 -100v-709zM322 766q0 -98 90 -98q86 0 86 98v709q0 98 -86 98q-90 0 -90 -98v-709z" />
<glyph unicode="&#xa7;" horiz-adv-x="913" d="M18 -254q0 -32 19 -80q65 -121 145 -180q93 -68 219 -68q168 0 275 117q100 109 100 275q0 90 -19.5 152t-62.5 118q117 114 117 291q0 103 -25 170q-37 99 -143 188q-30 24 -90.5 67.5t-73.5 53.5q-25 15 -78 57q-60 49 -83 86t-23 82q0 66 38 100.5t107 34.5 q95 0 146 -94q26 -57 78 -57q32 0 56.5 25t24.5 65q0 111 -120 194q-85 58 -187 58q-137 0 -229 -92t-92 -236q0 -78 30.5 -143t96.5 -131q-75 -42 -118.5 -116.5t-43.5 -170.5q0 -93 43 -166q73 -128 285 -260q79 -54 133 -111q57 -60 57 -161q0 -85 -51 -142t-148 -57 q-87 0 -135.5 37.5t-81.5 124.5q-24 63 -80 63q-37 0 -61.5 -24.5t-24.5 -69.5zM260 514q0 62 38 102t114 52q129 -94 166 -131q57 -60 57 -162q0 -115 -80 -166q-61 46 -98 72q-75 53 -90 65q-61 49 -84 86t-23 82z" />
<glyph unicode="&#xa8;" horiz-adv-x="845" d="M129 1083q0 -57 35.5 -96t85.5 -39q48 0 85.5 39.5t37.5 95.5t-37.5 96t-85.5 40q-50 0 -85.5 -39.5t-35.5 -96.5zM475 1083q0 -57 35 -96t86 -39q48 0 84.5 39.5t36.5 95.5t-36.5 96t-84.5 40q-51 0 -86 -39.5t-35 -96.5z" />
<glyph unicode="&#xa9;" horiz-adv-x="1536" d="M102 696q0 -312 170 -506q181 -210 496 -210t496 210q170 194 170 506q0 311 -170 502q-181 203 -496 203t-496 -203q-170 -191 -170 -502zM252 696q0 239 133 387q143 156 383 156t383 -156q133 -148 133 -387q0 -243 -133 -391q-143 -162 -383 -162t-383 162 q-133 148 -133 391zM438 692q0 -166 97 -284q89 -113 229 -113q121 0 209 88q76 76 76 129q0 36 -23.5 61t-56.5 25q-49 0 -78 -59q-35 -68 -127 -68q-70 0 -117 60t-47 161t47 160t117 59q46 0 72.5 -15t50.5 -52q24 -41 63 -41q33 0 57.5 26t24.5 64q0 65 -74 125 q-81 69 -194 69q-140 0 -229 -112q-97 -118 -97 -283z" />
<glyph unicode="&#xaa;" horiz-adv-x="614" d="M72 999q0 -114 63 -190t156 -76q54 0 94 27q21 -15 51 -15q76 0 76 86v336q0 86 -76 86q-31 0 -51 -14q-40 27 -94 27q-93 0 -156 -76t-63 -191zM225 999q0 46 18 72.5t48 26.5t48.5 -25t18.5 -67v-7q0 -46 -18.5 -72t-48.5 -26t-48 26t-18 72z" />
<glyph unicode="&#xab;" horiz-adv-x="827" d="M47 457q0 -27 14 -51l222 -359q35 -47 75 -47q36 0 62 25t26 65q0 35 -14 55l-190 312l190 311q14 20 14 51q0 40 -26 66t-62 26q-46 0 -75 -45l-222 -358q-14 -20 -14 -51zM381 457q0 -27 14 -51l221 -359q35 -47 76 -47q36 0 62 25t26 65q0 35 -14 55l-191 312l191 311 q14 20 14 51q0 40 -26 66t-62 26q-47 0 -76 -45l-221 -358q-14 -20 -14 -51z" />
<glyph unicode="&#xac;" horiz-adv-x="1028" d="M139 713q0 -97 86 -97h488v-325q0 -101 86 -101q90 0 90 101v424q0 94 -86 94h-578q-86 0 -86 -96z" />
<glyph unicode="&#xad;" horiz-adv-x="704" d="M47 690q0 -96 88 -96h434q88 0 88 94t-88 94h-434q-88 0 -88 -92z" />
<glyph unicode="&#xae;" horiz-adv-x="1536" d="M102 696q0 -312 170 -506q181 -210 496 -210t496 210q170 194 170 506q0 311 -170 502q-181 203 -496 203t-496 -203q-170 -191 -170 -502zM252 696q0 239 133 387q143 156 383 156t383 -156q133 -148 133 -387q0 -243 -133 -391q-143 -162 -383 -162t-383 162 q-133 148 -133 391zM530 401q0 -71 66 -71q36 0 51 17.5t15 53.5v215h73l205 -266q14 -20 47 -20q29 0 47.5 20t18.5 51q0 25 -13 43l-139 177q72 17 112 75t40 138q0 95 -53.5 154t-149.5 59h-254q-33 0 -49.5 -16.5t-16.5 -55.5v-574zM662 758v145h188q32 0 51 -20.5 t19 -51.5t-20 -52t-52 -21h-186z" />
<glyph unicode="&#xaf;" horiz-adv-x="849" d="M139 1075q0 -94 92 -94h387q93 0 93 92q0 96 -93 96h-387q-92 0 -92 -94z" />
<glyph unicode="&#xb0;" horiz-adv-x="729" d="M92 1124q0 -116 80 -196q79 -82 193 -82q113 0 192 82q80 80 80 196q0 114 -80 197q-80 80 -192 80q-113 0 -193 -80q-80 -83 -80 -197zM258 1124q0 42 30 71.5t74 29.5t75.5 -30t31.5 -71t-31.5 -70.5t-75.5 -29.5t-74 29t-30 71z" />
<glyph unicode="&#xb1;" horiz-adv-x="1091" d="M152 96q0 -96 88 -96h624q88 0 88 94t-88 94h-624q-88 0 -88 -92zM152 690q0 -96 88 -96h223v-219q0 -94 88 -94q90 0 90 94v219h223q88 0 88 94t-88 94h-223v217q0 95 -88 95q-90 0 -90 -95v-217h-223q-88 0 -88 -92z" />
<glyph unicode="&#xb2;" horiz-adv-x="581" d="M86 1223q0 -43 21 -66.5t53 -23.5q63 0 78 65q6 28 19 42.5t38 14.5q23 0 37 -15t14 -40q0 -43 -31 -98l-211 -365q-12 -21 -12 -53q0 -38 21.5 -63t66.5 -25h269q75 0 75 84q0 39 -20 61.5t-55 22.5h-152l149 250q56 95 56 198q0 93 -57 150t-150 57q-79 0 -145 -59 q-64 -57 -64 -137z" />
<glyph unicode="&#xb3;" horiz-adv-x="618" d="M82 819q0 -102 62 -167.5t175 -65.5q100 0 170 73q66 72 66 172q0 106 -74 177q70 63 70 159q0 116 -61.5 184t-161.5 68q-98 0 -162 -61q-68 -65 -68 -162q0 -33 22 -59.5t58 -26.5q64 0 76 74q4 22 9 36t21.5 27t43.5 13q30 0 49.5 -24t19.5 -62t-16.5 -64.5 t-54.5 -26.5q-80 0 -80 -73q0 -76 82 -76q35 0 54 -24t19 -66q0 -48 -22 -73.5t-60 -25.5q-81 0 -81 74q0 41 -23 63.5t-57 22.5q-76 0 -76 -86z" />
<glyph unicode="&#xb4;" horiz-adv-x="618" d="M139 973q0 -38 28 -67t64 -29q42 0 68 36l160 207q20 20 20 58q0 40 -29 69t-65 29q-35 0 -68 -39l-157 -205q-21 -27 -21 -59z" />
<glyph unicode="&#xb6;" horiz-adv-x="1198" d="M41 991q0 -170 96 -280q101 -119 279 -119h63v-1055q0 -98 88 -98t88 98v1653h228v-1653q0 -98 86 -98q90 0 90 98v1751q0 94 -86 94h-563q-178 0 -273 -112q-96 -113 -96 -279z" />
<glyph unicode="&#xb7;" horiz-adv-x="466" d="M102 690q0 -61 38.5 -103t92.5 -42t93 42t39 103q0 60 -39 103t-93 43t-92.5 -43t-38.5 -103z" />
<glyph unicode="&#xb8;" horiz-adv-x="632" d="M139 -469q0 -102 156 -102q105 0 178 73q72 72 72 179q0 93 -50.5 146t-148.5 60v140q0 84 -76 84q-75 0 -75 -84v-164q0 -96 77 -96q93 0 93 -80q0 -30 -19.5 -52t-48.5 -22q-14 0 -29 6t-45 6q-41 0 -62.5 -25.5t-21.5 -68.5z" />
<glyph unicode="&#xb9;" horiz-adv-x="346" d="M104 682q0 -86 82 -86q74 0 74 86v641q0 84 -74 84q-82 0 -82 -84v-641z" />
<glyph unicode="&#xba;" horiz-adv-x="587" d="M72 999q0 -114 63 -190t156 -76q92 0 158 76q63 76 63 190q0 115 -63 191q-66 76 -158 76q-93 0 -156 -76t-63 -191zM225 999q0 46 18 72.5t48 26.5t48.5 -26.5t18.5 -72.5t-18.5 -72t-48.5 -26t-48 26t-18 72z" />
<glyph unicode="&#xbb;" horiz-adv-x="827" d="M47 90q0 -40 26 -65t62 -25q41 0 76 47l221 359q14 24 14 51q0 31 -14 51l-221 358q-29 45 -76 45q-36 0 -62 -26t-26 -66q0 -31 14 -51l191 -311l-191 -312q-14 -20 -14 -55zM381 90q0 -40 26 -65t62 -25q41 0 76 47l221 359q14 24 14 51q0 31 -14 51l-221 358 q-29 45 -76 45q-36 0 -62 -26t-26 -66q0 -31 14 -51l191 -311l-191 -312q-14 -20 -14 -55z" />
<glyph unicode="&#xbc;" horiz-adv-x="1366" d="M94 84q0 -31 24 -57.5t58 -26.5q46 0 68 43l702 1204q15 25 15 53q0 31 -23 56.5t-57 25.5q-41 0 -68 -47l-707 -1204q-12 -21 -12 -47zM127 682q0 -86 82 -86q74 0 74 86v641q0 84 -74 84q-82 0 -82 -84v-641zM766 393q0 -96 82 -96h223v-231q0 -86 76 -86t76 86v235 q49 12 49 82q0 65 -49 80v242q0 86 -76 86t-76 -86v-240h-151v240q0 86 -78 86q-76 0 -76 -86v-312z" />
<glyph unicode="&#xbd;" horiz-adv-x="1271" d="M98 84q0 -31 24 -57.5t58 -26.5q46 0 68 43l702 1204q15 25 15 53q0 31 -23 56.5t-57 25.5q-41 0 -68 -47l-706 -1204q-13 -23 -13 -47zM113 682q0 -86 82 -86q73 0 73 86v641q0 84 -73 84q-82 0 -82 -84v-641zM739 606q0 -43 21 -66.5t53 -23.5q63 0 78 66q6 28 19 42.5 t38 14.5q23 0 37 -15t14 -40q0 -46 -30 -99l-211 -364q-13 -23 -13 -53q0 -38 22 -63t67 -25h268q76 0 76 83q0 38 -20.5 61t-55.5 23h-152l150 250q55 93 55 199q0 93 -57 150t-150 57q-78 0 -145 -60q-64 -57 -64 -137z" />
<glyph unicode="&#xbe;" horiz-adv-x="1529" d="M111 819q0 -102 62 -167.5t175 -65.5q100 0 170 73q66 72 66 172q0 106 -74 177q70 63 70 159q0 115 -62 183.5t-162 68.5q-97 0 -161 -61q-68 -65 -68 -162q0 -33 22 -59.5t58 -26.5q64 0 76 74q4 23 9 36.5t21 26.5t43 13q30 0 50 -24t20 -62t-17 -64.5t-55 -26.5 q-80 0 -80 -73q0 -76 82 -76q35 0 54.5 -24t19.5 -66q0 -48 -22 -73.5t-60 -25.5q-82 0 -82 74q0 41 -23 63.5t-57 22.5q-75 0 -75 -86zM285 84q0 -31 24 -57.5t58 -26.5q45 0 67 43l703 1204q14 23 14 53q0 31 -23 56.5t-57 25.5q-40 0 -67 -47l-707 -1204q-12 -21 -12 -47 zM930 393q0 -96 82 -96h223v-231q0 -86 76 -86q75 0 75 86v235q50 12 50 82q0 65 -50 80v242q0 86 -75 86q-76 0 -76 -86v-240h-152v240q0 86 -77 86q-76 0 -76 -86v-312z" />
<glyph unicode="&#xbf;" horiz-adv-x="874" d="M88 -8q0 -159 100.5 -251.5t288.5 -92.5q70 0 129 20q46 14 90 40.5t79.5 73.5t35.5 101q0 88 -88 88q-44 0 -78 -47q-32 -45 -71 -65.5t-107 -20.5q-98 0 -150.5 43.5t-52.5 122.5q0 42 17 88q27 63 131 152q45 39 71 78q82 113 82 280q0 98 -88 98q-90 0 -90 -100 q0 -52 -10.5 -93t-32.5 -72.5t-39.5 -49t-46.5 -41.5q-43 -35 -80 -78q-49 -54 -69.5 -119t-20.5 -155zM346 911q0 -60 38.5 -102.5t92.5 -42.5t92.5 42.5t38.5 102.5q0 61 -38.5 103.5t-92.5 42.5t-92.5 -42.5t-38.5 -103.5z" />
<glyph unicode="&#xc0;" horiz-adv-x="1173" d="M47 88q0 -34 26.5 -61t67.5 -27q51 0 76 66l150 393h440l147 -393q25 -66 78 -66q40 0 67 27t27 61q0 15 -10 45l-434 1176q-27 73 -96 73q-68 0 -94 -71l-437 -1178q-8 -13 -8 -45zM365 1739q0 -38 20 -58l160 -206q27 -37 67 -37q36 0 64.5 29t28.5 67q0 32 -21 59 l-158 205q-33 39 -67 39q-36 0 -65 -29t-29 -69zM436 647l150 400l151 -400h-301z" />
<glyph unicode="&#xc1;" horiz-adv-x="1173" d="M47 88q0 -34 26.5 -61t67.5 -27q51 0 76 66l150 393h440l147 -393q25 -66 78 -66q40 0 67 27t27 61q0 15 -10 45l-434 1176q-27 73 -96 73q-68 0 -94 -71l-437 -1178q-8 -13 -8 -45zM436 647l150 400l151 -400h-301zM479 1534q0 -38 28 -67t64 -29q41 0 68 37l160 206 q20 20 20 58q0 40 -29 69t-65 29q-35 0 -68 -39l-157 -205q-21 -27 -21 -59z" />
<glyph unicode="&#xc2;" horiz-adv-x="1173" d="M47 88q0 -34 26.5 -61t67.5 -27q51 0 76 66l150 393h440l147 -393q25 -66 78 -66q40 0 67 27t27 61q0 15 -10 45l-434 1176q-27 73 -96 73q-68 0 -94 -71l-437 -1178q-8 -13 -8 -45zM346 1534q0 -38 28 -67t64 -29q43 0 68 37l86 127l86 -127q25 -37 70 -37q36 0 64 29 t28 67q0 32 -21 59l-157 205q-33 39 -70 39q-39 0 -68 -39l-157 -205q-21 -27 -21 -59zM436 647l150 400l151 -400h-301z" />
<glyph unicode="&#xc3;" horiz-adv-x="1173" d="M47 88q0 -34 26.5 -61t67.5 -27q51 0 76 66l150 393h440l147 -393q25 -66 78 -66q40 0 67 27t27 61q0 15 -10 45l-434 1176q-27 73 -96 73q-68 0 -94 -71l-437 -1178q-8 -13 -8 -45zM291 1595q0 -45 22 -66.5t60 -21.5q33 0 58.5 24t25.5 66q0 43 24 43q17 0 25 -8 q1 -1 29 -37q67 -94 174 -94q80 0 132 54t52 159q0 44 -24.5 66t-57.5 22q-37 0 -61.5 -24.5t-24.5 -65.5q0 -45 -18 -45q-15 0 -23 8q-19 19 -35 37q-40 47 -77.5 71.5t-94.5 24.5q-83 0 -134.5 -54t-51.5 -159zM436 647l150 400l151 -400h-301z" />
<glyph unicode="&#xc4;" horiz-adv-x="1173" d="M47 88q0 -34 26.5 -61t67.5 -27q51 0 76 66l150 393h440l147 -393q25 -66 78 -66q40 0 67 27t27 61q0 15 -10 45l-434 1176q-27 73 -96 73q-68 0 -94 -71l-437 -1178q-8 -13 -8 -45zM297 1645q0 -57 35.5 -96.5t85.5 -39.5q48 0 85.5 40t37.5 96t-37.5 95.5t-85.5 39.5 q-50 0 -85.5 -39t-35.5 -96zM436 647l150 400l151 -400h-301zM643 1645q0 -57 35 -96.5t86 -39.5q48 0 84.5 40t36.5 96t-36.5 95.5t-84.5 39.5q-51 0 -86 -39t-35 -96z" />
<glyph unicode="&#xc5;" horiz-adv-x="1173" d="M47 88q0 -34 26.5 -61t67.5 -27q51 0 76 66l150 393h440l147 -393q25 -66 78 -66q40 0 67 27t27 61q0 15 -10 45l-434 1176q-27 73 -96 73q-68 0 -94 -71l-437 -1178q-8 -13 -8 -45zM389 1628q0 -87 60 -147q62 -62 143 -62t143 62q60 60 60 147q0 85 -60 148 q-58 61 -143 61t-143 -61q-60 -63 -60 -148zM436 647l150 400l151 -400h-301zM508 1628q0 35 24.5 60.5t59.5 25.5t60.5 -25.5t25.5 -60.5t-25.5 -59.5t-60.5 -24.5t-59.5 24.5t-24.5 59.5z" />
<glyph unicode="&#xc6;" horiz-adv-x="1544" d="M47 88q0 -36 25 -62t71 -26q55 0 76 68l148 391h329v-367q0 -92 88 -92h578q86 0 86 94q0 96 -86 96h-490v404h371q88 0 88 94t-88 94h-371v408h490q86 0 86 98q0 94 -86 94h-780q-64 0 -90 -71l-437 -1180q-8 -16 -8 -43zM436 647l203 543h57v-543h-260z" />
<glyph unicode="&#xc7;" horiz-adv-x="1259" d="M102 696q0 -273 134 -465q139 -202 362 -241v-127q0 -96 78 -96q92 0 92 -80q0 -30 -19.5 -52t-48.5 -22q-13 0 -28 6t-45 6q-41 0 -62.5 -25.5t-21.5 -68.5q0 -102 155 -102q106 0 179 73q71 71 71 179q0 93 -50 146t-148 60v95q151 9 276 94q81 59 121 112q18 21 18 62 q0 40 -27 68t-63 28q-35 0 -59 -31q-125 -143 -309 -143q-195 0 -316 154q-112 142 -112 370t112 367q121 147 316 147q178 0 309 -141q27 -27 59 -27q36 0 63 29t27 68q0 34 -18 55q-68 81 -141 125q-141 82 -299 82q-137 0 -249 -53t-192 -150q-79 -96 -121.5 -225.5 t-42.5 -276.5z" />
<glyph unicode="&#xc8;" horiz-adv-x="985" d="M139 92q0 -92 88 -92h576q86 0 86 94q0 96 -86 96h-488v404h369q88 0 88 94t-88 94h-369v408h488q86 0 86 98q0 94 -86 94h-576q-88 0 -88 -94v-1196zM299 1739q0 -38 20 -58l160 -206q27 -37 68 -37q36 0 64 29t28 67q0 32 -21 59l-157 205q-33 39 -68 39q-36 0 -65 -29 t-29 -69z" />
<glyph unicode="&#xc9;" horiz-adv-x="985" d="M139 92q0 -92 88 -92h576q86 0 86 94q0 96 -86 96h-488v404h369q88 0 88 94t-88 94h-369v408h488q86 0 86 98q0 94 -86 94h-576q-88 0 -88 -94v-1196zM418 1534q0 -38 28 -67t64 -29q41 0 68 37l159 206q21 21 21 58q0 40 -29 69t-65 29q-35 0 -68 -39l-158 -205 q-20 -26 -20 -59z" />
<glyph unicode="&#xca;" horiz-adv-x="985" d="M139 92q0 -92 88 -92h576q86 0 86 94q0 96 -86 96h-488v404h369q88 0 88 94t-88 94h-369v408h488q86 0 86 98q0 94 -86 94h-576q-88 0 -88 -94v-1196zM281 1534q0 -38 28 -67t64 -29q42 0 67 37l86 127l86 -127q25 -37 70 -37q36 0 64 29t28 67q0 33 -20 59l-158 205 q-33 39 -70 39q-38 0 -67 -39l-158 -205q-20 -26 -20 -59z" />
<glyph unicode="&#xcb;" horiz-adv-x="985" d="M139 92q0 -92 88 -92h576q86 0 86 94q0 96 -86 96h-488v404h369q88 0 88 94t-88 94h-369v408h488q86 0 86 98q0 94 -86 94h-576q-88 0 -88 -94v-1196zM231 1645q0 -57 35.5 -96.5t85.5 -39.5q48 0 85.5 40t37.5 96t-37.5 95.5t-85.5 39.5q-50 0 -85.5 -39t-35.5 -96z M578 1645q0 -57 34.5 -96.5t85.5 -39.5q48 0 84.5 40t36.5 96t-36.5 95.5t-84.5 39.5q-51 0 -85.5 -39t-34.5 -96z" />
<glyph unicode="&#xcc;" horiz-adv-x="638" d="M92 1739q0 -37 21 -58l159 -206q27 -37 68 -37q36 0 64 29t28 67q0 33 -20 59l-158 205q-33 39 -68 39q-36 0 -65 -29t-29 -69zM119 92q0 -92 88 -92h223q86 0 86 92q0 98 -86 98h-24v1000h24q86 0 86 98q0 94 -86 94h-223q-88 0 -88 -94q0 -98 88 -98h22v-1000h-22 q-88 0 -88 -98z" />
<glyph unicode="&#xcd;" horiz-adv-x="641" d="M123 92q0 -92 88 -92h223q86 0 86 92q0 98 -86 98h-24v1000h24q86 0 86 98q0 94 -86 94h-223q-88 0 -88 -94q0 -98 88 -98h22v-1000h-22q-88 0 -88 -98zM209 1534q0 -38 28 -67t64 -29q41 0 68 37l159 206q21 21 21 58q0 40 -29 69t-65 29q-35 0 -68 -39l-158 -205 q-20 -26 -20 -59z" />
<glyph unicode="&#xce;" horiz-adv-x="634" d="M84 1534q0 -38 28 -67t64 -29q43 0 68 37l86 127l86 -127q25 -37 69 -37q36 0 64.5 29t28.5 67q0 32 -21 59l-158 205q-33 39 -69 39q-39 0 -68 -39l-158 -205q-20 -26 -20 -59zM131 92q0 -92 88 -92h223q86 0 86 92q0 98 -86 98h-24v1000h24q86 0 86 98q0 94 -86 94 h-223q-88 0 -88 -94q0 -98 88 -98h23v-1000h-23q-88 0 -88 -98z" />
<glyph unicode="&#xcf;" horiz-adv-x="628" d="M20 1645q0 -57 35.5 -96.5t85.5 -39.5q48 0 85.5 40t37.5 96t-37.5 95.5t-85.5 39.5q-50 0 -85.5 -39t-35.5 -96zM117 92q0 -92 88 -92h223q86 0 86 92q0 98 -86 98h-25v1000h25q86 0 86 98q0 94 -86 94h-223q-88 0 -88 -94q0 -98 88 -98h22v-1000h-22q-88 0 -88 -98z M367 1645q0 -57 34.5 -96.5t85.5 -39.5q48 0 84.5 40t36.5 96t-36.5 95.5t-84.5 39.5q-51 0 -85.5 -39t-34.5 -96z" />
<glyph unicode="&#xd0;" horiz-adv-x="1259" d="M0 688q0 -94 88 -94h39v-502q0 -92 88 -92h297q135 0 254 53t207 148q184 200 184 489q0 144 -48 270.5t-136 221.5t-208 147.5t-259 52.5h-291q-88 0 -88 -94v-506h-39q-88 0 -88 -94zM301 190v404h340q88 0 88 94t-88 94h-340v408h205q101 0 190 -41t156 -113 q65 -69 100 -160.5t35 -189.5t-36 -188t-101 -158q-66 -70 -153.5 -110t-184.5 -40h-211z" />
<glyph unicode="&#xd1;" horiz-adv-x="1196" d="M139 98q0 -98 88 -98t88 98v910l549 -949q16 -28 43.5 -43.5t53.5 -15.5q41 0 68.5 29t27.5 86v1167q0 100 -88 100t-88 -100v-907l-549 946q-19 31 -40 46t-54 15q-43 0 -71 -29.5t-28 -84.5v-1170zM297 1595q0 -45 22 -66.5t60 -21.5q33 0 58.5 24t25.5 66q0 43 24 43 q17 0 25 -8q1 -1 29 -37q67 -94 174 -94q80 0 132 54t52 159q0 44 -24.5 66t-57.5 22q-37 0 -61.5 -24.5t-24.5 -65.5q0 -45 -18 -45q-15 0 -23 8q-19 19 -35 37q-40 47 -77.5 71.5t-94.5 24.5q-83 0 -134.5 -54t-51.5 -159z" />
<glyph unicode="&#xd2;" horiz-adv-x="1413" d="M102 696q0 -148 42.5 -278t121.5 -228q167 -210 441 -210q134 0 247.5 55t192.5 155q79 98 121.5 228t42.5 278q0 147 -42.5 276.5t-121.5 225.5q-79 97 -192 150t-248 53q-137 0 -249 -53t-192 -150q-79 -96 -121.5 -225.5t-42.5 -276.5zM279 696q0 228 112 367 q121 147 316 147q194 0 315 -147q113 -140 113 -367q0 -226 -113 -370q-121 -154 -315 -154q-195 0 -316 154q-112 142 -112 370zM481 1739q0 -37 21 -58l160 -206q27 -37 67 -37q36 0 64 29t28 67q0 33 -20 59l-158 205q-33 39 -68 39q-36 0 -65 -29t-29 -69z" />
<glyph unicode="&#xd3;" horiz-adv-x="1413" d="M102 696q0 -148 42.5 -278t121.5 -228q167 -210 441 -210q134 0 247.5 55t192.5 155q79 98 121.5 228t42.5 278q0 147 -42.5 276.5t-121.5 225.5q-79 97 -192 150t-248 53q-137 0 -249 -53t-192 -150q-79 -96 -121.5 -225.5t-42.5 -276.5zM279 696q0 228 112 367 q121 147 316 147q194 0 315 -147q113 -140 113 -367q0 -226 -113 -370q-121 -154 -315 -154q-195 0 -316 154q-112 142 -112 370zM596 1534q0 -38 28 -67t64 -29q41 0 68 37l159 206q21 21 21 58q0 40 -29 69t-65 29q-35 0 -68 -39l-158 -205q-20 -26 -20 -59z" />
<glyph unicode="&#xd4;" horiz-adv-x="1413" d="M102 696q0 -148 42.5 -278t121.5 -228q167 -210 441 -210q134 0 247.5 55t192.5 155q79 98 121.5 228t42.5 278q0 147 -42.5 276.5t-121.5 225.5q-79 97 -192 150t-248 53q-137 0 -249 -53t-192 -150q-79 -96 -121.5 -225.5t-42.5 -276.5zM279 696q0 228 112 367 q121 147 316 147q194 0 315 -147q113 -140 113 -367q0 -226 -113 -370q-121 -154 -315 -154q-195 0 -316 154q-112 142 -112 370zM463 1534q0 -38 28 -67t64 -29q43 0 68 37l86 127l86 -127q25 -37 69 -37q36 0 64 29t28 67q0 33 -20 59l-158 205q-33 39 -69 39 q-39 0 -68 -39l-158 -205q-20 -26 -20 -59z" />
<glyph unicode="&#xd5;" horiz-adv-x="1413" d="M102 696q0 -148 42.5 -278t121.5 -228q167 -210 441 -210q134 0 247.5 55t192.5 155q79 98 121.5 228t42.5 278q0 147 -42.5 276.5t-121.5 225.5q-79 97 -192 150t-248 53q-137 0 -249 -53t-192 -150q-79 -96 -121.5 -225.5t-42.5 -276.5zM279 696q0 228 112 367 q121 147 316 147q194 0 315 -147q113 -140 113 -367q0 -226 -113 -370q-121 -154 -315 -154q-195 0 -316 154q-112 142 -112 370zM408 1595q0 -88 81 -88q33 0 58.5 24t25.5 66q0 43 25 43q17 0 25 -8q3 -3 6.5 -8t9.5 -13.5t12 -15.5q67 -94 174 -94q80 0 132.5 54 t52.5 159q0 44 -24.5 66t-57.5 22q-37 0 -61.5 -24.5t-24.5 -65.5q0 -45 -19 -45q-14 0 -22 8q-19 19 -35 37q-40 47 -77.5 71.5t-94.5 24.5q-83 0 -134.5 -54t-51.5 -159z" />
<glyph unicode="&#xd6;" horiz-adv-x="1413" d="M102 696q0 -148 42.5 -278t121.5 -228q167 -210 441 -210q134 0 247.5 55t192.5 155q79 98 121.5 228t42.5 278q0 147 -42.5 276.5t-121.5 225.5q-79 97 -192 150t-248 53q-137 0 -249 -53t-192 -150q-79 -96 -121.5 -225.5t-42.5 -276.5zM279 696q0 228 112 367 q121 147 316 147q194 0 315 -147q113 -140 113 -367q0 -226 -113 -370q-121 -154 -315 -154q-195 0 -316 154q-112 142 -112 370zM414 1645q0 -57 35.5 -96.5t85.5 -39.5q48 0 85 40t37 96t-37 95.5t-85 39.5q-50 0 -85.5 -39t-35.5 -96zM760 1645q0 -57 35 -96.5t86 -39.5 q48 0 84 40t36 96t-36 95.5t-84 39.5q-51 0 -86 -39t-35 -96z" />
<glyph unicode="&#xd7;" horiz-adv-x="1091" d="M233 459q0 -27 33 -64q28 -35 62 -35q30 0 61 31l158 160l160 -158q3 -2 8 -6.5t7.5 -6t7 -5t7 -5t6.5 -3.5t7.5 -3t7.5 -1.5t8 -0.5q32 0 62 34t30 67q0 36 -27 63l-153 156l151 154q29 29 29 63q0 31 -31 66q-32 32 -61 32q-33 0 -61 -28l-158 -158l-158 158 q-35 30 -61 30q-30 0 -62 -32q-30 -30 -30 -66q0 -37 28 -65l154 -154l-156 -158q-29 -33 -29 -65z" />
<glyph unicode="&#xd8;" horiz-adv-x="1413" d="M102 696q0 -322 172 -518l-79 -125q-17 -31 -17 -55q0 -32 28.5 -63t63.5 -31q42 0 76 51l68 106q124 -81 293 -81q134 0 247.5 55t192.5 155q79 98 121.5 228t42.5 278q0 311 -168 504l82 129q16 26 16 60q0 33 -27 61.5t-63 28.5q-37 0 -76 -52l-69 -108 q-141 82 -299 82q-137 0 -249 -53t-192 -150q-79 -96 -121.5 -225.5t-42.5 -276.5zM279 696q0 228 112 367q121 147 316 147q113 0 200 -49l-528 -823q-100 141 -100 358zM512 217l526 823q97 -139 97 -344q0 -226 -113 -370q-121 -154 -315 -154q-115 0 -195 45z" />
<glyph unicode="&#xd9;" horiz-adv-x="1210" d="M123 494q0 -230 133 -373q132 -141 350 -141q216 0 348 141q133 143 133 373v788q0 100 -86 100q-90 0 -90 -100v-788q0 -148 -82 -235t-223 -87t-224 87t-83 235v788q0 100 -90 100q-86 0 -86 -100v-788zM379 1739q0 -38 20 -58l160 -206q27 -37 68 -37q36 0 64 29 t28 67q0 32 -21 59l-157 205q-33 39 -68 39q-36 0 -65 -29t-29 -69z" />
<glyph unicode="&#xda;" horiz-adv-x="1210" d="M123 494q0 -230 133 -373q132 -141 350 -141q216 0 348 141q133 143 133 373v788q0 100 -86 100q-90 0 -90 -100v-788q0 -148 -82 -235t-223 -87t-224 87t-83 235v788q0 100 -90 100q-86 0 -86 -100v-788zM494 1534q0 -38 28 -67t64 -29q40 0 67 37l160 206q21 21 21 58 q0 40 -29.5 69t-65.5 29q-34 0 -67 -39l-158 -205q-20 -26 -20 -59z" />
<glyph unicode="&#xdb;" horiz-adv-x="1210" d="M123 494q0 -230 133 -373q132 -141 350 -141q216 0 348 141q133 143 133 373v788q0 100 -86 100q-90 0 -90 -100v-788q0 -148 -82 -235t-223 -87t-224 87t-83 235v788q0 100 -90 100q-86 0 -86 -100v-788zM358 1534q0 -38 28.5 -67t64.5 -29q42 0 67 37l86 127l86 -127 q25 -37 70 -37q36 0 64 29t28 67q0 32 -21 59l-157 205q-33 39 -70 39q-38 0 -67 -39l-158 -205q-21 -27 -21 -59z" />
<glyph unicode="&#xdc;" horiz-adv-x="1210" d="M123 494q0 -230 133 -373q132 -141 350 -141q216 0 348 141q133 143 133 373v788q0 100 -86 100q-90 0 -90 -100v-788q0 -148 -82 -235t-223 -87t-224 87t-83 235v788q0 100 -90 100q-86 0 -86 -100v-788zM311 1645q0 -57 35.5 -96.5t85.5 -39.5q48 0 85.5 40t37.5 96 t-37.5 95.5t-85.5 39.5q-50 0 -85.5 -39t-35.5 -96zM657 1645q0 -57 35 -96.5t86 -39.5q48 0 84.5 40t36.5 96t-36.5 95.5t-84.5 39.5q-51 0 -86 -39t-35 -96z" />
<glyph unicode="&#xdd;" horiz-adv-x="1107" d="M47 1290q0 -30 19 -59l399 -576v-559q0 -96 88 -96t88 96v559l401 576q19 29 19 59q0 40 -26 66t-62 26q-42 0 -74 -43l-346 -489l-346 489q-30 43 -72 43q-36 0 -62 -26t-26 -66zM446 1534q0 -38 28.5 -67t64.5 -29q40 0 67 37l160 206q20 20 20 58q0 40 -29 69t-65 29 q-34 0 -67 -39l-158 -205q-21 -27 -21 -59z" />
<glyph unicode="&#xde;" horiz-adv-x="1167" d="M139 96q0 -96 88 -96t88 96v209h426q178 0 279 119q96 110 96 281q0 167 -94 278q-96 113 -274 113h-433v186q0 100 -86 100q-90 0 -90 -100v-1186zM315 496v407h433q85 0 138.5 -57t53.5 -146t-54 -146.5t-145 -57.5h-426z" />
<glyph unicode="&#xdf;" horiz-adv-x="983" d="M123 96q0 -96 90 -96q86 0 86 96v873q0 130 45 185.5t154 55.5q176 0 176 -223q0 -83 -39 -133.5t-117 -50.5h-20q-84 0 -84 -96q0 -95 84 -95h20q93 0 148 -65q51 -63 51 -154q0 -94 -63.5 -153.5t-190.5 -59.5q-48 0 -72 -26t-24 -72q0 -42 28 -67t70 -25 q203 0 319 119q107 107 107 284q0 106 -45 189q-50 93 -133 129q69 48 103 121t34 159q0 187 -82 293q-90 117 -270 117q-179 0 -279 -117q-96 -113 -96 -301v-887z" />
<glyph unicode="&#xe0;" d="M92 410q0 -184 103 -308q48 -58 113 -90t138 -32q110 0 187 65q17 -45 78 -45q90 0 90 96v627q0 98 -90 98q-60 0 -78 -47q-78 66 -187 66q-73 0 -138 -32t-113 -89q-103 -124 -103 -309zM231 1178q0 -37 21 -58l160 -207q26 -36 67 -36q36 0 64 29t28 67q0 33 -20 59 l-158 205q-33 39 -67 39q-36 0 -65.5 -29t-29.5 -69zM268 410q0 113 50.5 176t127.5 63q76 0 127 -60t52 -167v-12q0 -110 -51 -174t-128 -64q-76 0 -127 64.5t-51 173.5z" />
<glyph unicode="&#xe1;" d="M92 410q0 -184 103 -308q48 -58 113 -90t138 -32q110 0 187 65q17 -45 78 -45q90 0 90 96v627q0 98 -90 98q-60 0 -78 -47q-78 66 -187 66q-73 0 -138 -32t-113 -89q-103 -124 -103 -309zM268 410q0 113 50.5 176t127.5 63q76 0 127 -60t52 -167v-12q0 -110 -51 -174 t-128 -64q-76 0 -127 64.5t-51 173.5zM340 973q0 -38 28 -67t64 -29q42 0 68 36l159 207q21 21 21 58q0 40 -29 69t-65 29q-35 0 -68 -39l-158 -205q-20 -26 -20 -59z" />
<glyph unicode="&#xe2;" d="M92 410q0 -184 103 -308q48 -58 113 -90t138 -32q110 0 187 65q17 -45 78 -45q90 0 90 96v627q0 98 -90 98q-60 0 -78 -47q-78 66 -187 66q-73 0 -138 -32t-113 -89q-103 -124 -103 -309zM213 973q0 -38 28 -67t64 -29q44 0 68 36l86 127l86 -127q24 -36 69 -36 q36 0 64.5 29t28.5 67q0 32 -21 59l-158 205q-33 39 -69 39q-39 0 -68 -39l-158 -205q-20 -26 -20 -59zM268 410q0 113 50.5 176t127.5 63q76 0 127 -60t52 -167v-12q0 -110 -51 -174t-128 -64q-76 0 -127 64.5t-51 173.5z" />
<glyph unicode="&#xe3;" d="M92 410q0 -184 103 -308q48 -58 113 -90t138 -32q110 0 187 65q17 -45 78 -45q90 0 90 96v627q0 98 -90 98q-60 0 -78 -47q-78 66 -187 66q-73 0 -138 -32t-113 -89q-103 -124 -103 -309zM162 1034q0 -45 22 -66.5t60 -21.5q33 0 58.5 24t25.5 66q0 43 24 43q17 0 25 -8 q1 -1 29 -37q67 -94 174 -94q80 0 132 54t52 159q0 44 -24.5 66t-57.5 22q-37 0 -61.5 -24.5t-24.5 -65.5q0 -45 -18 -45q-15 0 -23 8q-19 19 -35 37q-40 47 -77.5 71.5t-94.5 24.5q-83 0 -134.5 -54t-51.5 -159zM268 410q0 113 50.5 176t127.5 63q76 0 127 -60t52 -167v-12 q0 -110 -51 -174t-128 -64q-76 0 -127 64.5t-51 173.5z" />
<glyph unicode="&#xe4;" d="M92 410q0 -184 103 -308q48 -58 113 -90t138 -32q110 0 187 65q17 -45 78 -45q90 0 90 96v627q0 98 -90 98q-60 0 -78 -47q-78 66 -187 66q-73 0 -138 -32t-113 -89q-103 -124 -103 -309zM166 1083q0 -57 35.5 -96t85.5 -39q48 0 85.5 39.5t37.5 95.5t-37.5 96t-85.5 40 q-50 0 -85.5 -39.5t-35.5 -96.5zM268 410q0 113 50.5 176t127.5 63q76 0 127 -60t52 -167v-12q0 -110 -51 -174t-128 -64q-76 0 -127 64.5t-51 173.5zM512 1083q0 -57 35 -96t86 -39q48 0 84.5 39.5t36.5 95.5t-36.5 96t-84.5 40q-51 0 -86 -39.5t-35 -96.5z" />
<glyph unicode="&#xe5;" d="M92 410q0 -184 103 -308q48 -58 113 -90t138 -32q110 0 187 65q17 -45 78 -45q90 0 90 96v627q0 98 -90 98q-60 0 -78 -47q-78 66 -187 66q-73 0 -138 -32t-113 -89q-103 -124 -103 -309zM256 1067q0 -88 59 -147q62 -62 144 -62q81 0 143 62q60 60 60 147q0 84 -60 147 q-59 62 -143 62q-85 0 -144 -62t-59 -147zM268 410q0 113 50.5 176t127.5 63q76 0 127 -60t52 -167v-12q0 -110 -51 -174t-128 -64q-76 0 -127 64.5t-51 173.5zM375 1067q0 35 24.5 60.5t59.5 25.5t60.5 -25.5t25.5 -60.5t-25.5 -59.5t-60.5 -24.5t-59.5 24.5t-24.5 59.5z " />
<glyph unicode="&#xe6;" horiz-adv-x="1421" d="M92 410q0 -184 103 -308q48 -58 113 -90t138 -32q110 0 187 65q17 -45 78 -45q65 0 80 43q81 -63 190 -63q147 0 233 92q76 81 76 143q0 41 -25 67.5t-61 26.5q-53 0 -86 -65q-35 -72 -137 -72q-70 0 -120 60.5t-56 158.5h446q38 0 58 26t20 62q0 44 -22 107 q-41 117 -128.5 185.5t-197.5 68.5q-106 0 -190 -64q-17 45 -80 45q-60 0 -78 -47q-78 66 -187 66q-73 0 -138 -32t-113 -89q-103 -124 -103 -309zM268 410q0 113 50.5 176t127.5 63q76 0 127 -60t52 -167v-12q0 -110 -51 -174t-128 -64q-76 0 -127 64.5t-51 173.5zM834 553 q30 53 63.5 76.5t83.5 23.5q95 0 149 -100h-296z" />
<glyph unicode="&#xe7;" horiz-adv-x="837" d="M92 410q0 -155 70 -267t188 -147v-133q0 -96 78 -96q92 0 92 -80q0 -30 -19 -52t-48 -22q-14 0 -29 6t-45 6q-41 0 -62.5 -25.5t-21.5 -68.5q0 -102 156 -102q105 0 178 73q71 71 71 179q0 93 -50 146t-148 60v99q112 24 176 88q78 75 78 141q0 41 -25 67.5t-61 26.5 q-53 0 -86 -65q-35 -72 -138 -72q-76 0 -127 64.5t-51 173.5q0 113 50.5 176t127.5 63q50 0 80 -16.5t54 -54.5q27 -46 69 -46q36 0 62 29t26 70q0 65 -80 135q-90 74 -211 74q-73 0 -138 -32t-113 -89q-103 -124 -103 -309z" />
<glyph unicode="&#xe8;" horiz-adv-x="870" d="M92 410q0 -184 103 -308q48 -58 113 -90t138 -32q148 0 234 92q76 81 76 143q0 41 -25 67.5t-61 26.5q-53 0 -86 -65q-35 -72 -138 -72q-70 0 -120 60.5t-56 158.5h447q38 0 58 26t20 62q0 41 -23 107q-41 117 -128.5 185.5t-197.5 68.5q-165 0 -264 -142 q-90 -128 -90 -288zM225 1178q0 -37 21 -58l160 -207q26 -36 67 -36q36 0 64 29t28 67q0 33 -20 59l-158 205q-33 39 -68 39q-36 0 -65 -29t-29 -69zM299 553q30 53 63.5 76.5t83.5 23.5q96 0 150 -100h-297z" />
<glyph unicode="&#xe9;" horiz-adv-x="870" d="M92 410q0 -184 103 -308q48 -58 113 -90t138 -32q148 0 234 92q76 81 76 143q0 41 -25 67.5t-61 26.5q-53 0 -86 -65q-35 -72 -138 -72q-70 0 -120 60.5t-56 158.5h447q38 0 58 26t20 62q0 41 -23 107q-41 117 -128.5 185.5t-197.5 68.5q-165 0 -264 -142 q-90 -128 -90 -288zM299 553q30 53 63.5 76.5t83.5 23.5q96 0 150 -100h-297zM340 973q0 -38 28 -67t64 -29q42 0 68 36l159 207q21 21 21 58q0 40 -29 69t-65 29q-35 0 -68 -39l-158 -205q-20 -26 -20 -59z" />
<glyph unicode="&#xea;" horiz-adv-x="870" d="M92 410q0 -184 103 -308q48 -58 113 -90t138 -32q148 0 234 92q76 81 76 143q0 41 -25 67.5t-61 26.5q-53 0 -86 -65q-35 -72 -138 -72q-70 0 -120 60.5t-56 158.5h447q38 0 58 26t20 62q0 41 -23 107q-41 117 -128.5 185.5t-197.5 68.5q-165 0 -264 -142 q-90 -128 -90 -288zM205 973q0 -38 28 -67t64 -29q44 0 68 36l86 127l86 -127q24 -36 69 -36q36 0 64 29t28 67q0 33 -20 59l-158 205q-33 39 -69 39q-39 0 -68 -39l-158 -205q-20 -26 -20 -59zM299 553q30 53 63.5 76.5t83.5 23.5q96 0 150 -100h-297z" />
<glyph unicode="&#xeb;" horiz-adv-x="870" d="M92 410q0 -184 103 -308q48 -58 113 -90t138 -32q148 0 234 92q76 81 76 143q0 41 -25 67.5t-61 26.5q-53 0 -86 -65q-35 -72 -138 -72q-70 0 -120 60.5t-56 158.5h447q38 0 58 26t20 62q0 41 -23 107q-41 117 -128.5 185.5t-197.5 68.5q-165 0 -264 -142 q-90 -128 -90 -288zM158 1083q0 -57 35.5 -96t85.5 -39q48 0 85 39.5t37 95.5t-37 96t-85 40q-50 0 -85.5 -39.5t-35.5 -96.5zM299 553q30 53 63.5 76.5t83.5 23.5q96 0 150 -100h-297zM504 1083q0 -57 35 -96t86 -39q48 0 84 39.5t36 95.5t-36 96t-84 40q-51 0 -86 -39.5 t-35 -96.5z" />
<glyph unicode="&#xec;" horiz-adv-x="540" d="M55 1178q0 -37 21 -58l160 -207q26 -36 67 -36q36 0 64 29t28 67q0 33 -20 59l-158 205q-33 39 -67 39q-36 0 -65.5 -29t-29.5 -69zM197 96q0 -96 88 -96t88 96v629q0 96 -88 96t-88 -96v-629z" />
<glyph unicode="&#xed;" horiz-adv-x="557" d="M145 973q0 -38 28.5 -67t64.5 -29q41 0 67 36l160 207q20 20 20 58q0 40 -29 69t-65 29q-34 0 -67 -39l-158 -205q-21 -27 -21 -59zM172 96q0 -96 88 -96t88 96v629q0 96 -88 96t-88 -96v-629z" />
<glyph unicode="&#xee;" horiz-adv-x="536" d="M33 973q0 -38 28 -67t64 -29q44 0 68 36l86 127l86 -127q24 -36 69 -36q36 0 64 29t28 67q0 33 -20 59l-158 205q-33 39 -69 39q-39 0 -68 -39l-158 -205q-20 -26 -20 -59zM193 96q0 -96 88 -96t88 96v629q0 96 -88 96t-88 -96v-629z" />
<glyph unicode="&#xef;" horiz-adv-x="571" d="M-8 1083q0 -57 35.5 -96t85.5 -39q48 0 85.5 39.5t37.5 95.5t-37.5 96t-85.5 40q-50 0 -85.5 -39.5t-35.5 -96.5zM201 96q0 -96 88 -96t88 96v629q0 96 -88 96t-88 -96v-629zM338 1083q0 -57 35 -96t86 -39q48 0 84.5 39.5t36.5 95.5t-36.5 96t-84.5 40q-51 0 -86 -39.5 t-35 -96.5z" />
<glyph unicode="&#xf0;" horiz-adv-x="913" d="M102 410q0 -184 103 -308q48 -58 113.5 -90t138.5 -32t138.5 32t113.5 90q102 123 102 308q0 346 -143 686l108 106q29 26 29 64q0 36 -25 61t-57 25q-34 0 -59 -25l-76 -74q-37 61 -72 95t-78 34q-35 0 -59.5 -28.5t-24.5 -67.5q0 -45 29 -72q32 -24 70 -88l-107 -104 q-29 -29 -29 -66q0 -35 24.5 -60.5t55.5 -25.5q32 0 60 25l71 70q38 -105 50 -150q-58 25 -121 25q-73 0 -138.5 -32t-113.5 -89q-103 -124 -103 -309zM279 410q0 113 50 176t128 63q77 0 127.5 -63t50.5 -176q0 -109 -51 -173.5t-127 -64.5q-77 0 -127.5 64t-50.5 174z" />
<glyph unicode="&#xf1;" horiz-adv-x="921" d="M139 92q0 -92 86 -92q90 0 90 92v389q0 71 44 119.5t116 48.5q148 0 148 -168v-389q0 -48 20 -70t66 -22q90 0 90 92v389q0 359 -312 359q-112 0 -184 -58q-17 39 -78 39q-86 0 -86 -94v-635zM160 1034q0 -45 22 -66.5t60 -21.5q33 0 58.5 24t25.5 66q0 43 24 43 q17 0 25 -8q3 -3 6.5 -8t9.5 -13.5t12 -15.5q67 -94 175 -94q80 0 132 54t52 159q0 44 -24.5 66t-57.5 22q-37 0 -61.5 -24.5t-24.5 -65.5q0 -45 -19 -45q-14 0 -22 8q-19 19 -35 37q-40 47 -77.5 71.5t-94.5 24.5q-83 0 -134.5 -54t-51.5 -159z" />
<glyph unicode="&#xf2;" horiz-adv-x="892" d="M92 410q0 -184 103 -308q48 -58 113 -90t138 -32t138.5 32t113.5 90q103 124 103 308q0 185 -103 309q-48 57 -113.5 89t-138.5 32t-138 -32t-113 -89q-103 -124 -103 -309zM221 1178q0 -37 21 -58l159 -207q26 -36 68 -36q36 0 64 29t28 67q0 33 -20 59l-158 205 q-33 39 -68 39q-36 0 -65 -29t-29 -69zM268 410q0 113 50.5 176t127.5 63q78 0 128.5 -63t50.5 -176q0 -110 -51 -174t-128 -64q-76 0 -127 64.5t-51 173.5z" />
<glyph unicode="&#xf3;" horiz-adv-x="892" d="M92 410q0 -184 103 -308q48 -58 113 -90t138 -32t138.5 32t113.5 90q103 124 103 308q0 185 -103 309q-48 57 -113.5 89t-138.5 32t-138 -32t-113 -89q-103 -124 -103 -309zM268 410q0 113 50.5 176t127.5 63q78 0 128.5 -63t50.5 -176q0 -110 -51 -174t-128 -64 q-76 0 -127 64.5t-51 173.5zM336 973q0 -38 28 -67t64 -29q42 0 68 36l159 207q21 21 21 58q0 40 -29 69t-65 29q-35 0 -68 -39l-158 -205q-20 -26 -20 -59z" />
<glyph unicode="&#xf4;" horiz-adv-x="892" d="M92 410q0 -184 103 -308q48 -58 113 -90t138 -32t138.5 32t113.5 90q103 124 103 308q0 185 -103 309q-48 57 -113.5 89t-138.5 32t-138 -32t-113 -89q-103 -124 -103 -309zM203 973q0 -38 28 -67t64 -29q43 0 67 36l87 127l86 -127q24 -36 69 -36q36 0 64 29t28 67 q0 33 -20 59l-158 205q-33 39 -69 39q-39 0 -68 -39l-158 -205q-20 -26 -20 -59zM268 410q0 113 50.5 176t127.5 63q78 0 128.5 -63t50.5 -176q0 -110 -51 -174t-128 -64q-76 0 -127 64.5t-51 173.5z" />
<glyph unicode="&#xf5;" horiz-adv-x="892" d="M92 410q0 -184 103 -308q48 -58 113 -90t138 -32t138.5 32t113.5 90q103 124 103 308q0 185 -103 309q-48 57 -113.5 89t-138.5 32t-138 -32t-113 -89q-103 -124 -103 -309zM147 1034q0 -45 22 -66.5t60 -21.5q33 0 58.5 24t25.5 66q0 43 25 43q16 0 24 -8q1 -1 29 -37 q67 -94 174 -94q80 0 132.5 54t52.5 159q0 44 -24.5 66t-57.5 22q-37 0 -61.5 -24.5t-24.5 -65.5q0 -45 -19 -45q-14 0 -22 8q-19 19 -35 37q-40 47 -77.5 71.5t-94.5 24.5q-83 0 -135 -54t-52 -159zM268 410q0 113 50.5 176t127.5 63q78 0 128.5 -63t50.5 -176 q0 -110 -51 -174t-128 -64q-76 0 -127 64.5t-51 173.5z" />
<glyph unicode="&#xf6;" horiz-adv-x="892" d="M92 410q0 -184 103 -308q48 -58 113 -90t138 -32t138.5 32t113.5 90q103 124 103 308q0 185 -103 309q-48 57 -113.5 89t-138.5 32t-138 -32t-113 -89q-103 -124 -103 -309zM154 1083q0 -57 35 -96t85 -39q48 0 85.5 39.5t37.5 95.5t-37.5 96t-85.5 40q-50 0 -85 -39.5 t-35 -96.5zM268 410q0 113 50.5 176t127.5 63q78 0 128.5 -63t50.5 -176q0 -110 -51 -174t-128 -64q-76 0 -127 64.5t-51 173.5zM500 1083q0 -57 35 -96t86 -39q48 0 84 39.5t36 95.5t-36 96t-84 40q-51 0 -86 -39.5t-35 -96.5z" />
<glyph unicode="&#xf7;" horiz-adv-x="1079" d="M152 690q0 -96 88 -96h624q88 0 88 94t-88 94h-624q-88 0 -88 -92zM420 340q0 -61 38.5 -103t92.5 -42t92.5 42t38.5 103q0 60 -38.5 102.5t-92.5 42.5t-92.5 -42.5t-38.5 -102.5zM420 1040q0 -61 38.5 -103t92.5 -42t92.5 42t38.5 103q0 60 -38.5 103t-92.5 43 t-92.5 -43t-38.5 -103z" />
<glyph unicode="&#xf8;" horiz-adv-x="892" d="M92 410q0 -159 78 -277l-51 -82q-15 -19 -15 -53q0 -33 28 -63.5t65 -30.5q39 0 73 51l37 59q64 -34 139 -34q73 0 138.5 32t113.5 90q103 124 103 308q0 159 -78 274l51 84q14 23 14 59q0 33 -27 62t-63 29q-41 0 -75 -52l-37 -59q-62 33 -140 33q-73 0 -138 -32 t-113 -89q-103 -124 -103 -309zM268 410q0 113 50.5 176t127.5 63q11 0 39 -4l-204 -332q-13 67 -13 97zM406 176l206 332q13 -47 13 -98q0 -110 -51 -174t-128 -64q-12 0 -40 4z" />
<glyph unicode="&#xf9;" horiz-adv-x="923" d="M123 340q0 -360 313 -360q111 0 182 59q20 -39 80 -39q86 0 86 92v635q0 94 -86 94q-90 0 -90 -94v-387q0 -73 -44 -120.5t-118 -47.5q-76 0 -111.5 42t-35.5 126v387q0 50 -19.5 72t-66.5 22q-90 0 -90 -94v-387zM233 1178q0 -37 21 -58l160 -207q26 -36 67 -36 q36 0 64 29t28 67q0 33 -20 59l-158 205q-33 39 -67 39q-36 0 -65.5 -29t-29.5 -69z" />
<glyph unicode="&#xfa;" horiz-adv-x="923" d="M123 340q0 -360 313 -360q111 0 182 59q20 -39 80 -39q86 0 86 92v635q0 94 -86 94q-90 0 -90 -94v-387q0 -73 -44 -120.5t-118 -47.5q-76 0 -111.5 42t-35.5 126v387q0 50 -19.5 72t-66.5 22q-90 0 -90 -94v-387zM348 973q0 -38 28 -67t64 -29q42 0 68 36l160 207 q20 20 20 58q0 40 -29 69t-65 29q-35 0 -68 -39l-157 -205q-21 -27 -21 -59z" />
<glyph unicode="&#xfb;" horiz-adv-x="923" d="M123 340q0 -360 313 -360q111 0 182 59q20 -39 80 -39q86 0 86 92v635q0 94 -86 94q-90 0 -90 -94v-387q0 -73 -44 -120.5t-118 -47.5q-76 0 -111.5 42t-35.5 126v387q0 50 -19.5 72t-66.5 22q-90 0 -90 -94v-387zM213 973q0 -38 28 -67t64 -29q44 0 68 36l86 127 l86 -127q24 -36 69 -36q36 0 64.5 29t28.5 67q0 32 -21 59l-158 205q-33 39 -69 39q-39 0 -68 -39l-158 -205q-20 -26 -20 -59z" />
<glyph unicode="&#xfc;" d="M123 340q0 -360 313 -360q111 0 182 59q20 -39 80 -39q86 0 86 92v635q0 94 -86 94q-90 0 -90 -94v-387q0 -73 -44 -120.5t-118 -47.5q-76 0 -111.5 42t-35.5 126v387q0 50 -19.5 72t-66.5 22q-90 0 -90 -94v-387zM164 1083q0 -57 35.5 -96t85.5 -39q48 0 85.5 39.5 t37.5 95.5t-37.5 96t-85.5 40q-50 0 -85.5 -39.5t-35.5 -96.5zM510 1083q0 -57 35 -96t86 -39q48 0 84.5 39.5t36.5 95.5t-36.5 96t-84.5 40q-51 0 -86 -39.5t-35 -96.5z" />
<glyph unicode="&#xfd;" horiz-adv-x="833" d="M47 729q0 -18 10 -45l273 -565l-258 -580q-9 -15 -9 -45q0 -41 26.5 -67.5t60.5 -26.5q52 0 75 53l553 1237q8 16 8 41q0 37 -27.5 63.5t-60.5 26.5q-50 0 -71 -49l-199 -453l-215 449q-24 53 -78 53q-34 0 -61 -25.5t-27 -66.5zM319 973q0 -38 28.5 -67t64.5 -29 q41 0 67 36l160 207q20 20 20 58q0 40 -29 69t-65 29q-34 0 -67 -39l-158 -205q-21 -27 -21 -59z" />
<glyph unicode="&#xfe;" horiz-adv-x="937" d="M139 -502q0 -98 90 -98q86 0 86 98v541q70 -59 179 -59q145 0 251 122q101 122 101 308q0 187 -101 309q-105 121 -251 121q-103 0 -179 -58v500q0 100 -86 100q-90 0 -90 -100v-1784zM315 410v12q1 107 52 167t127 60q77 0 127.5 -63t50.5 -176q0 -109 -51 -173.5 t-127 -64.5q-77 0 -128 64t-51 174z" />
<glyph unicode="&#xff;" horiz-adv-x="833" d="M47 729q0 -18 10 -45l273 -565l-258 -580q-9 -15 -9 -45q0 -41 26.5 -67.5t60.5 -26.5q52 0 75 53l553 1237q8 16 8 41q0 37 -27.5 63.5t-60.5 26.5q-50 0 -71 -49l-199 -453l-215 449q-24 53 -78 53q-34 0 -61 -25.5t-27 -66.5zM143 1083q0 -57 35.5 -96t85.5 -39 q48 0 85.5 39.5t37.5 95.5t-37.5 96t-85.5 40q-50 0 -85.5 -39.5t-35.5 -96.5zM489 1083q0 -57 35 -96t86 -39q48 0 84.5 39.5t36.5 95.5t-36.5 96t-84.5 40q-51 0 -86 -39.5t-35 -96.5z" />
<glyph unicode="&#x152;" horiz-adv-x="1982" d="M102 696q0 -148 42.5 -278t121.5 -228q167 -210 441 -210q264 0 428 194v-82q0 -92 88 -92h577q86 0 86 94q0 96 -86 96h-489v404h370q88 0 88 94t-88 94h-370v408h489q86 0 86 98q0 94 -86 94h-577q-88 0 -88 -94v-78q-170 191 -428 191q-137 0 -249 -53t-192 -150 q-79 -96 -121.5 -225.5t-42.5 -276.5zM279 696q0 228 112 367q121 147 316 147q194 0 315 -147q113 -140 113 -367q0 -226 -113 -370q-121 -154 -315 -154q-195 0 -316 154q-112 142 -112 370z" />
<glyph unicode="&#x153;" horiz-adv-x="1419" d="M92 410q0 -184 103 -308q48 -58 113 -90t138 -32q79 0 148 37t119 104q48 -67 116.5 -104t149.5 -37q147 0 233 92q76 81 76 143q0 41 -25 67.5t-61 26.5q-53 0 -86 -65q-35 -72 -137 -72q-70 0 -120 60.5t-56 158.5h446q38 0 58 26t20 62q0 44 -22 107 q-41 117 -128.5 185.5t-197.5 68.5q-165 0 -266 -144q-48 67 -118.5 105.5t-148.5 38.5q-73 0 -138 -32t-113 -89q-103 -124 -103 -309zM268 410q0 113 50.5 176t127.5 63q78 0 128.5 -63t50.5 -176q0 -110 -51 -174t-128 -64q-76 0 -127 64.5t-51 173.5zM831 553 q30 52 64 76t84 24q95 0 149 -100h-297z" />
<glyph unicode="&#x178;" horiz-adv-x="1107" d="M47 1290q0 -30 19 -59l399 -576v-559q0 -96 88 -96t88 96v559l401 576q19 29 19 59q0 40 -26 66t-62 26q-42 0 -74 -43l-346 -489l-346 489q-30 43 -72 43q-36 0 -62 -26t-26 -66zM264 1645q0 -57 35.5 -96.5t85.5 -39.5q48 0 85.5 40t37.5 96t-37.5 95.5t-85.5 39.5 q-50 0 -85.5 -39t-35.5 -96zM610 1645q0 -57 35 -96.5t86 -39.5q48 0 84.5 40t36.5 96t-36.5 95.5t-84.5 39.5q-51 0 -86 -39t-35 -96z" />
<glyph unicode="&#x2c6;" horiz-adv-x="772" d="M139 973q0 -38 28 -67t64 -29q44 0 68 36l86 127l86 -127q24 -36 70 -36q36 0 64 29t28 67q0 32 -21 59l-157 205q-33 39 -70 39q-39 0 -68 -39l-157 -205q-21 -27 -21 -59z" />
<glyph unicode="&#x2dc;" horiz-adv-x="880" d="M139 1034q0 -45 22 -66.5t60 -21.5q33 0 58.5 24t25.5 66q0 43 25 43q16 0 24 -8q1 -1 29 -37q67 -94 174 -94q80 0 132 54t52 159q0 44 -24.5 66t-57.5 22q-37 0 -61.5 -24.5t-24.5 -65.5q0 -45 -18 -45q-15 0 -23 8q-10 10 -34 37q-40 47 -77.5 71.5t-94.5 24.5 q-83 0 -135 -54t-52 -159z" />
<glyph unicode="&#x2000;" horiz-adv-x="918" />
<glyph unicode="&#x2001;" horiz-adv-x="1837" />
<glyph unicode="&#x2002;" horiz-adv-x="918" />
<glyph unicode="&#x2003;" horiz-adv-x="1837" />
<glyph unicode="&#x2004;" horiz-adv-x="612" />
<glyph unicode="&#x2005;" horiz-adv-x="459" />
<glyph unicode="&#x2006;" horiz-adv-x="306" />
<glyph unicode="&#x2007;" horiz-adv-x="306" />
<glyph unicode="&#x2008;" horiz-adv-x="229" />
<glyph unicode="&#x2009;" horiz-adv-x="367" />
<glyph unicode="&#x200a;" horiz-adv-x="102" />
<glyph unicode="&#x2010;" horiz-adv-x="704" d="M47 690q0 -96 88 -96h434q88 0 88 94t-88 94h-434q-88 0 -88 -92z" />
<glyph unicode="&#x2011;" horiz-adv-x="704" d="M47 690q0 -96 88 -96h434q88 0 88 94t-88 94h-434q-88 0 -88 -92z" />
<glyph unicode="&#x2012;" horiz-adv-x="704" d="M47 690q0 -96 88 -96h434q88 0 88 94t-88 94h-434q-88 0 -88 -92z" />
<glyph unicode="&#x2013;" horiz-adv-x="1030" d="M47 690q0 -96 88 -96h760q88 0 88 94t-88 94h-760q-88 0 -88 -92z" />
<glyph unicode="&#x2014;" horiz-adv-x="1411" d="M47 690q0 -96 88 -96h1141q88 0 88 94t-88 94h-1141q-88 0 -88 -92z" />
<glyph unicode="&#x2018;" horiz-adv-x="462" d="M102 1147q0 -67 36.5 -110.5t92.5 -43.5q59 0 94 39.5t35 112.5q0 34 -16 84q-18 41 -18 80q0 21 18 39q16 16 16 47q0 49 -57 49q-77 0 -139 -92t-62 -205z" />
<glyph unicode="&#x2019;" horiz-adv-x="462" d="M102 1042q0 -49 58 -49q38 0 75.5 24.5t65.5 67.5q59 88 59 205q0 67 -36.5 110.5t-92.5 43.5q-59 0 -94 -39.5t-35 -112.5q0 -38 19 -82q16 -50 16 -82q0 -20 -16 -36q-19 -19 -19 -50z" />
<glyph unicode="&#x201a;" horiz-adv-x="462" d="M102 -86q0 -49 58 -49q38 0 75.5 24.5t65.5 67.5q59 88 59 205q0 67 -36.5 110t-92.5 43q-59 0 -94 -39t-35 -112q0 -38 19 -82q16 -50 16 -82q0 -21 -16 -37q-19 -19 -19 -49z" />
<glyph unicode="&#x201c;" horiz-adv-x="778" d="M102 1147q0 -67 36.5 -110.5t92.5 -43.5q59 0 94 39.5t35 112.5q0 34 -16 84q-18 41 -18 80q0 21 18 39q16 16 16 47q0 49 -57 49q-77 0 -139 -92t-62 -205zM418 1147q0 -67 36.5 -110.5t92.5 -43.5q59 0 94 39.5t35 112.5q0 31 -17 84q-18 41 -18 80q0 21 18 39 q17 17 17 47q0 49 -58 49q-77 0 -139 -92q-61 -91 -61 -205z" />
<glyph unicode="&#x201d;" horiz-adv-x="778" d="M102 1042q0 -49 58 -49q38 0 75.5 24.5t65.5 67.5q59 88 59 205q0 67 -36.5 110.5t-92.5 43.5q-59 0 -94 -39.5t-35 -112.5q0 -38 19 -82q16 -50 16 -82q0 -20 -16 -36q-19 -19 -19 -50zM418 1042q0 -49 57 -49q38 0 75.5 24.5t65.5 67.5q60 89 60 205q0 67 -36.5 110.5 t-92.5 43.5q-59 0 -94 -39.5t-35 -112.5q0 -41 18 -82q17 -53 17 -82q0 -19 -17 -36q-18 -18 -18 -50z" />
<glyph unicode="&#x201e;" horiz-adv-x="778" d="M102 -86q0 -49 58 -49q38 0 75.5 24.5t65.5 67.5q59 88 59 205q0 67 -36.5 110t-92.5 43q-59 0 -94 -39t-35 -112q0 -38 19 -82q16 -50 16 -82q0 -21 -16 -37q-19 -19 -19 -49zM418 -86q0 -49 57 -49q38 0 75.5 24.5t65.5 67.5q60 89 60 205q0 67 -36.5 110t-92.5 43 q-59 0 -94 -39t-35 -112q0 -41 18 -82q17 -53 17 -82q0 -20 -17 -37q-18 -18 -18 -49z" />
<glyph unicode="&#x2022;" horiz-adv-x="655" d="M106 692q0 -114 62 -178.5t158 -64.5q100 0 161.5 64t61.5 179t-61.5 179.5t-161.5 64.5q-95 0 -157.5 -65t-62.5 -179z" />
<glyph unicode="&#x2026;" horiz-adv-x="1396" d="M127 137q0 -61 38.5 -103t92.5 -42t92.5 42t38.5 103q0 60 -38.5 103t-92.5 43t-92.5 -43t-38.5 -103zM567 137q0 -61 38.5 -103t92.5 -42t92.5 42t38.5 103q0 60 -38.5 103t-92.5 43t-92.5 -43t-38.5 -103zM1008 137q0 -61 38.5 -103t92.5 -42t92.5 42t38.5 103 q0 60 -38.5 103t-92.5 43t-92.5 -43t-38.5 -103z" />
<glyph unicode="&#x202f;" horiz-adv-x="367" />
<glyph unicode="&#x2039;" horiz-adv-x="493" d="M47 457q0 -27 14 -51l222 -359q35 -47 75 -47q36 0 62 25t26 65q0 35 -14 55l-190 312l190 311q14 20 14 51q0 40 -26 66t-62 26q-46 0 -75 -45l-222 -358q-14 -20 -14 -51z" />
<glyph unicode="&#x203a;" horiz-adv-x="493" d="M47 90q0 -40 26 -65t62 -25q41 0 76 47l221 359q14 24 14 51q0 31 -14 51l-221 358q-29 45 -76 45q-36 0 -62 -26t-26 -66q0 -31 14 -51l191 -311l-191 -312q-14 -20 -14 -55z" />
<glyph unicode="&#x205f;" horiz-adv-x="459" />
<glyph unicode="&#x20ac;" horiz-adv-x="1331" d="M57 518q0 -96 88 -96h60q63 -200 211 -318q153 -124 354 -124q255 0 438 208q21 27 21 62q0 40 -27 68t-63 28q-32 0 -60 -31q-41 -50 -90 -82q-88 -61 -219 -61q-133 0 -229 65.5t-148 184.5h379q88 0 88 94t-88 94h-426q-4 62 -4 86v35q0 23 2 35h617q88 0 88 94 q0 96 -88 96h-572q51 121 147.5 187.5t233.5 66.5q181 0 309 -141q27 -27 60 -27q36 0 63 29t27 68q0 30 -19 55q-78 102 -193 154.5t-247 52.5q-207 0 -358 -123q-144 -115 -209 -322h-58q-88 0 -88 -94q0 -96 88 -96h23q-2 -10 -2 -35v-35q0 -32 4 -86h-25q-88 0 -88 -92z " />
<glyph unicode="&#x2122;" horiz-adv-x="1685" d="M45 1296q0 -88 78 -88h133v-614q0 -88 80 -88t80 88v614h131q76 0 76 88q0 46 -18.5 66t-57.5 20h-424q-42 0 -60 -19.5t-18 -66.5zM698 594q0 -88 82 -88q80 0 80 88v362l182 -393q11 -28 33 -42.5t47 -14.5q53 0 80 55l184 395v-362q0 -88 80 -88t80 88v696 q0 92 -84 92q-57 0 -80 -57l-260 -557l-258 557q-26 57 -82 57q-84 0 -84 -92v-696z" />
<glyph unicode="&#x25fc;" horiz-adv-x="819" d="M0 0v819h819v-819h-819z" />
</font>
</defs>
</svg>
