<?xml version="1.0" encoding="utf-8"?>
<!-- Generator: Adobe Illustrator 16.0.4, SVG Export Plug-In . SVG Version: 6.00 Build 0)  -->
<!DOCTYPE svg PUBLIC "-//W3C//DTD SVG 1.1//EN" "http://www.w3.org/Graphics/SVG/1.1/DTD/svg11.dtd">
<svg version="1.1" id="Layer_1" xmlns="http://www.w3.org/2000/svg" xmlns:xlink="http://www.w3.org/1999/xlink" x="0px" y="0px"
	 width="121.943px" height="64.729px" viewBox="0 0 121.943 64.729" enable-background="new 0 0 121.943 64.729"
	 xml:space="preserve">
<g>
	<path  fill="white" d="M4.92,13.153L3.912,16.37H0L5.592,0.36h4.489l5.088,16.009h-4.081l-0.864-3.216H4.92z M7.752,3.937l-1.944,6.265h3.624
		L7.752,3.937z"/>
	<path  fill="white" d="M7.417,36.793l3.84-12.433h3.912L9.577,40.37H5.088L0,24.36h4.081L7.417,36.793z"/>
	<path  fill="white" d="M20.328,13.153L19.32,16.37h-3.912L21,0.36h4.489l5.088,16.009h-4.081l-0.864-3.216H20.328z M23.16,3.937l-1.944,6.265
		h3.624L23.16,3.937z"/>
	<path  fill="white" d="M36.12,13.297h7.824v3.072H32.52V0.36h3.601V13.297z"/>
	<path  fill="white" d="M51.481,16.37H47.88V3.433h-4.849V0.36h13.297v3.072h-4.848V16.37z"/>
	<path  fill="white" d="M70.993,2.041c1.633,1.536,2.448,3.648,2.448,6.457c0,4.872-3.216,8.232-7.921,8.232c-4.752,0-7.944-3.36-7.944-8.376
		c0-2.616,0.888-4.873,2.472-6.312C61.512,0.696,63.384,0,65.497,0C67.68,0,69.553,0.696,70.993,2.041z M61.344,8.353
		c0,3.36,1.535,5.328,4.176,5.328c2.616,0,4.152-1.944,4.152-5.256c0-1.68-0.287-2.832-0.912-3.744
		c-0.744-1.056-1.896-1.632-3.264-1.632C62.879,3.048,61.344,5.017,61.344,8.353z"/>
	<path  fill="white" d="M28.513,27.433h-8.329v3.12h7.272v2.833h-7.272v3.912h8.473v3.072H16.584V24.36h11.929V27.433z"/>
	<path  fill="white" d="M40.945,40.37l-4.537-8.185c-0.72-1.368-1.128-2.112-1.656-3.121c0.048,0.864,0.048,1.44,0.048,1.92
		c0.024,0.864,0.024,1.8,0.024,2.808v6.577h-3.288V24.36h3.744l4.417,7.969c0.624,1.2,1.032,2.016,1.632,3.24
		c-0.048-0.648-0.048-1.08-0.048-1.56l-0.024-2.353V24.36h3.288V40.37H40.945z"/>
	<path  fill="white" d="M55.081,40.37H51.48V27.433h-4.848V24.36h13.297v3.072h-4.849V40.37z"/>
	<path  fill="white" d="M74.857,24.36v10.825c0,2.016-0.529,3.289-1.729,4.176c-1.225,0.888-2.856,1.368-4.681,1.368
		c-1.849,0-3.48-0.48-4.704-1.368c-1.2-0.888-1.729-2.16-1.729-4.176V24.36h3.601v10.585c0,1.08,0.168,1.56,0.647,2.016
		c0.528,0.48,1.272,0.72,2.185,0.72c0.888,0,1.632-0.24,2.16-0.72c0.479-0.456,0.647-0.936,0.647-2.016V24.36H74.857z"/>
	<path  fill="white" d="M82.031,40.37h-3.527V24.36h6.984c2.088,0,3.216,0.264,4.176,0.96c1.008,0.72,1.537,1.896,1.537,3.36
		c0,1.968-0.865,3.192-2.665,3.864c1.585,0.504,2.136,1.344,2.257,3.457l0.119,2.28c0.072,1.056,0.192,1.417,0.648,2.088h-3.528
		c-0.433-0.336-0.552-0.576-0.601-1.392l-0.144-2.184c-0.144-1.968-1.008-2.833-2.856-2.833h-2.4V40.37z M85.56,31.129
		c1.32,0,2.039-0.648,2.039-1.848s-0.719-1.848-2.039-1.848h-3.529v3.696H85.56z"/>
	<path fill="white" d="M106.295,27.433h-8.329v3.12h7.273v2.833h-7.273v3.912h8.473v3.072H94.367V24.36h11.929V27.433z"/>
	<path fill="white" d="M118.103,29.376v-0.264c0-1.32-1.08-2.112-2.88-2.112c-1.681,0-2.736,0.624-2.736,1.632c0,0.672,0.479,1.128,1.464,1.368
		l3.24,0.744c3.408,0.816,4.752,2.136,4.752,4.633c0,3.336-2.52,5.352-6.695,5.352c-4.32,0-6.817-2.064-6.842-5.64h3.602
		c0.071,1.824,1.104,2.64,3.287,2.64c1.849,0,2.977-0.696,2.977-1.824c0-0.768-0.576-1.32-1.729-1.608l-2.904-0.72
		c-1.703-0.408-2.76-0.864-3.479-1.488c-0.792-0.696-1.272-1.848-1.272-3.144c0-3.097,2.4-4.945,6.433-4.945
		c2.664,0,4.513,0.816,5.521,2.424c0.48,0.768,0.721,1.584,0.864,2.952H118.103z"/>
	<path fill="white" d="M4.237,64.37H0.637V48.36h6.289c2.184,0,3.336,0.312,4.368,1.224c1.128,0.984,1.729,2.424,1.729,4.176
		c0,1.512-0.456,2.736-1.344,3.696c-0.984,1.032-2.208,1.464-4.056,1.464H4.237V64.37z M7.069,55.849c1.44,0,2.28-0.816,2.28-2.208
		s-0.84-2.208-2.28-2.208H4.237v4.417H7.069z"/>
	<path fill="white" d="M19.045,64.37h-3.528V48.36h6.985c2.088,0,3.216,0.264,4.176,0.96c1.008,0.72,1.536,1.896,1.536,3.36
		c0,1.968-0.864,3.192-2.665,3.864c1.584,0.504,2.136,1.344,2.256,3.457l0.12,2.28c0.072,1.056,0.192,1.417,0.648,2.088h-3.528
		c-0.432-0.336-0.552-0.576-0.6-1.392l-0.144-2.184c-0.144-1.968-1.008-2.833-2.856-2.833h-2.4V64.37z M22.573,55.129
		c1.32,0,2.04-0.648,2.04-1.848s-0.72-1.848-2.04-1.848h-3.528v3.696H22.573z"/>
	<path fill="white" d="M44.125,50.041c1.633,1.536,2.449,3.648,2.449,6.457c0,4.872-3.217,8.232-7.921,8.232c-4.752,0-7.944-3.36-7.944-8.376
		c0-2.616,0.888-4.873,2.472-6.312C34.644,48.696,36.517,48,38.628,48C40.813,48,42.685,48.696,44.125,50.041z M34.476,56.353
		c0,3.36,1.536,5.328,4.176,5.328c2.617,0,4.152-1.944,4.152-5.256c0-1.68-0.287-2.832-0.911-3.744
		c-0.744-1.056-1.896-1.632-3.265-1.632C36.012,51.048,34.476,53.017,34.476,56.353z"/>
	<path fill="white" d="M63.685,55.513v8.857h-2.16l-0.504-2.04c-1.104,1.728-2.473,2.4-4.801,2.4c-4.536,0-7.32-3.144-7.32-8.256
		c0-5.137,3.072-8.473,7.776-8.473c3.505,0,6.145,1.992,6.889,5.208l-3.479,0.216c-0.385-1.512-1.609-2.376-3.385-2.376
		c-2.617,0-4.201,1.968-4.201,5.185c0,3.48,1.537,5.521,4.177,5.521c2.064,0,3.577-1.272,3.937-3.288h-3.912v-2.953H63.685z"/>
	<path fill="white" d="M70.523,64.37h-3.527V48.36h6.984c2.088,0,3.216,0.264,4.176,0.96c1.008,0.72,1.537,1.896,1.537,3.36
		c0,1.968-0.865,3.192-2.665,3.864c1.585,0.504,2.136,1.344,2.257,3.457l0.119,2.28c0.072,1.056,0.192,1.417,0.648,2.088h-3.528
		c-0.433-0.336-0.552-0.576-0.601-1.392l-0.144-2.184c-0.144-1.968-1.008-2.833-2.856-2.833h-2.4V64.37z M74.052,55.129
		c1.32,0,2.039-0.648,2.039-1.848s-0.719-1.848-2.039-1.848h-3.529v3.696H74.052z"/>
	<path fill="white" d="M86.076,61.153l-1.009,3.216h-3.912l5.593-16.009h4.488l5.088,16.009h-4.08l-0.863-3.216H86.076z M88.908,51.937
		l-1.944,6.265h3.624L88.908,51.937z"/>
	<path fill="white" d="M104.387,64.37l-2.208-8.521c-0.264-1.032-0.264-1.056-0.408-1.561c-0.12-0.504-0.145-0.6-0.288-1.056
		c0.048,0.6,0.048,0.984,0.048,1.248l0.024,1.536v8.353h-3.288V48.36h5.064l2.039,8.376c0.312,1.248,0.576,2.568,0.769,3.625
		l0.097-0.504l0.264-1.032c0.072-0.384,0.168-0.744,0.24-1.08c0.072-0.36,0.168-0.72,0.24-1.056l2.088-8.329h5.016V64.37h-3.287
		v-8.353l0.023-1.536c0-0.312,0-0.672,0.048-1.248c-0.265,0.984-0.433,1.608-0.504,1.824c-0.072,0.264-0.144,0.528-0.24,0.768
		l-2.185,8.545H104.387z"/>
</g>

</svg>
