<?xml version="1.0" encoding="UTF-8" standalone="no"?>
<svg width="129px" height="40px" viewBox="0 0 129 40" version="1.1" xmlns="http://www.w3.org/2000/svg" xmlns:xlink="http://www.w3.org/1999/xlink" xmlns:sketch="http://www.bohemiancoding.com/sketch/ns">
    <!-- Generator: Sketch 3.4 (15588) - http://www.bohemiancoding.com/sketch -->
    <title>Artboard 1</title>
    <desc>Created with Sketch.</desc>
    <defs>
        <path id="path-1" d="M0,0.72 L841.89,0.72 L841.89,596 L0,596 L0,0.72 Z"></path>
    </defs>
    <g id="Page-1" stroke="none" stroke-width="1" fill="none" fill-rule="evenodd" sketch:type="MSPage">
        <g id="Artboard-1" sketch:type="MSArtboardGroup">
            <g id="Logotype_w_tagline" sketch:type="MSLayerGroup" transform="translate(-356.000000, -277.000000)">
                <g>
                    <path d="M371.8227,301.3781 L368.0697,301.3781 L362.2707,285.8451 L366.9257,285.8451 L369.9367,293.8931 L372.9467,285.8451 L377.6027,285.8451 L371.8227,301.3781 Z" id="Fill-1" fill="#FFFFFF" sketch:type="MSShapeGroup"></path>
                    <path d="M379.7701,301.3781 L379.7701,285.8051 L392.1921,285.8051 L392.1921,289.5171 L383.8241,289.5171 L383.8241,291.7451 L391.7111,291.7451 L391.7111,295.4581 L383.8241,295.4581 L383.8241,297.6851 L392.1921,297.6851 L392.1921,301.3781 L379.7701,301.3781 Z" id="Fill-2" fill="#FFFFFF" sketch:type="MSShapeGroup"></path>
                    <g id="Group-32">
                        <path d="M402.34,289.2769 L399.911,289.2769 L399.911,292.6279 L402.34,292.6279 C402.58,292.6279 402.808,292.5849 403.022,292.4989 C403.236,292.4119 403.424,292.2929 403.584,292.1399 C403.745,291.9869 403.872,291.8109 403.965,291.6109 C404.059,291.4119 404.106,291.1919 404.106,290.9529 C404.106,290.7129 404.059,290.4939 403.965,290.2939 C403.872,290.0949 403.745,289.9189 403.584,289.7659 C403.424,289.6129 403.236,289.4929 403.022,289.4069 C402.808,289.3199 402.58,289.2769 402.34,289.2769 L402.34,289.2769 Z M405.37,301.3779 L402.661,296.5619 L400.032,296.5619 L400.052,301.3779 L395.758,301.3779 L395.758,285.8049 L403.564,285.8049 C403.938,285.8049 404.32,285.8749 404.708,286.0159 C405.096,286.1559 405.47,286.3439 405.832,286.5779 C406.193,286.8119 406.527,287.0759 406.835,287.3699 C407.143,287.6649 407.404,287.9659 407.618,288.2729 C407.885,288.6619 408.09,289.1129 408.23,289.6279 C408.37,290.1429 408.441,290.6349 408.441,291.1029 C408.441,291.8789 408.26,292.6019 407.899,293.2699 C407.538,293.9399 407.036,294.5019 406.394,294.9559 L410.046,301.3779 L405.37,301.3779 Z" id="Fill-3" fill="#FFFFFF" sketch:type="MSShapeGroup"></path>
                        <path d="M423.1749,289.6581 L418.8999,289.6581 L418.8999,301.3781 L414.6659,301.3781 L414.6659,289.6581 L410.3909,289.6581 L410.1099,289.3771 L410.1099,285.8051 L423.4559,285.8051 L423.4559,289.3771 L423.1749,289.6581 Z" id="Fill-5" fill="#FFFFFF" sketch:type="MSShapeGroup"></path>
                        <mask id="mask-2" sketch:name="Clip 8" fill="white">
                            <use xlink:href="#path-1"></use>
                        </mask>
                        <g id="Clip-8"></g>
                        <path d="M425.991,285.805 L430.185,285.805 L430.185,301.378 L425.991,301.378 L425.991,285.805 Z" id="Fill-7" fill="#FFFFFF" sketch:type="MSShapeGroup" mask="url(#mask-2)"></path>
                        <path d="M440.7285,301.8597 C439.5775,301.8597 438.5035,301.6417 437.5075,301.2077 C436.5105,300.7727 435.6415,300.1777 434.8985,299.4217 C434.1555,298.6657 433.5705,297.7897 433.1425,296.7927 C432.7145,295.7957 432.5005,294.7357 432.5005,293.6117 C432.5005,292.4877 432.7145,291.4277 433.1425,290.4307 C433.5705,289.4347 434.1555,288.5577 434.8985,287.8017 C435.6415,287.0467 436.5105,286.4507 437.5075,286.0157 C438.5035,285.5807 439.5775,285.3637 440.7285,285.3637 C441.7715,285.3637 442.7755,285.5537 443.7385,285.9357 C444.7025,286.3167 445.5915,286.8687 446.4075,287.5907 L443.1965,290.4007 C442.4205,289.8527 441.6045,289.5777 440.7485,289.5777 C440.1865,289.5777 439.6645,289.6857 439.1835,289.8987 C438.7015,290.1127 438.2865,290.4077 437.9385,290.7817 C437.5905,291.1567 437.3165,291.5887 437.1155,292.0767 C436.9155,292.5647 436.8155,293.0767 436.8155,293.6117 C436.8155,294.1607 436.9155,294.6787 437.1155,295.1667 C437.3165,295.6557 437.5905,296.0837 437.9385,296.4517 C438.2865,296.8197 438.6985,297.1137 439.1725,297.3347 C439.6475,297.5547 440.1665,297.6657 440.7285,297.6657 C441.3705,297.6657 441.9695,297.5187 442.5245,297.2237 C443.0795,296.9297 443.5645,296.5147 443.9795,295.9797 L447.2905,298.6687 C446.4605,299.6857 445.4815,300.4717 444.3505,301.0267 C443.2195,301.5817 442.0125,301.8597 440.7285,301.8597" id="Fill-9" fill="#FFFFFF" sketch:type="MSShapeGroup" mask="url(#mask-2)"></path>
                        <path d="M455.7928,291.4843 L454.5488,295.5983 L457.0168,295.5983 L455.7928,291.4843 Z M458.9838,301.3783 L458.1808,299.2303 L453.3848,299.2303 L452.5818,301.3783 L448.1868,301.3783 L453.9468,285.8053 L457.6188,285.8053 L463.3788,301.3783 L458.9838,301.3783 Z" id="Fill-10" fill="#FFFFFF" sketch:type="MSShapeGroup" mask="url(#mask-2)"></path>
                        <path d="M465.5361,301.3781 L465.5361,285.8051 L469.8511,285.8051 L469.8511,297.5251 L478.0391,297.5251 L478.0391,301.3781 L465.5361,301.3781 Z" id="Fill-11" fill="#FFFFFF" sketch:type="MSShapeGroup" mask="url(#mask-2)"></path>
                        <path d="M381.5679,305.4348 L381.5679,305.8118 L379.9489,305.8118 L379.9489,310.0758 L379.5069,310.0758 L379.5069,305.8118 L377.8959,305.8118 L377.8959,305.4348 L381.5679,305.4348 Z" id="Fill-12" fill="#FFFFFF" sketch:type="MSShapeGroup" mask="url(#mask-2)"></path>
                        <path d="M382.4453,305.4348 L382.4453,307.4498 L385.2013,307.4498 L385.2013,305.4348 L385.6433,305.4348 L385.6433,310.0758 L385.2013,310.0758 L385.2013,307.8268 L382.4453,307.8268 L382.4453,310.0758 L382.0033,310.0758 L382.0033,305.4348 L382.4453,305.4348 Z" id="Fill-13" fill="#FFFFFF" sketch:type="MSShapeGroup" mask="url(#mask-2)"></path>
                        <path d="M389.7837,305.4348 L389.7837,305.8118 L387.0217,305.8118 L387.0217,307.4888 L389.6087,307.4888 L389.6087,307.8658 L387.0217,307.8658 L387.0217,309.6988 L389.8167,309.6988 L389.8167,310.0758 L386.5787,310.0758 L386.5787,305.4348 L389.7837,305.4348 Z" id="Fill-14" fill="#FFFFFF" sketch:type="MSShapeGroup" mask="url(#mask-2)"></path>
                        <path d="M392.6831,305.4348 L392.6831,307.4498 L395.4391,307.4498 L395.4391,305.4348 L395.8811,305.4348 L395.8811,310.0758 L395.4391,310.0758 L395.4391,307.8268 L392.6831,307.8268 L392.6831,310.0758 L392.2411,310.0758 L392.2411,305.4348 L392.6831,305.4348 Z" id="Fill-15" fill="#FFFFFF" sketch:type="MSShapeGroup" mask="url(#mask-2)"></path>
                        <path d="M400.022,305.4348 L400.022,305.8118 L397.259,305.8118 L397.259,307.4888 L399.846,307.4888 L399.846,307.8658 L397.259,307.8658 L397.259,309.6988 L400.054,309.6988 L400.054,310.0758 L396.817,310.0758 L396.817,305.4348 L400.022,305.4348 Z" id="Fill-16" fill="#FFFFFF" sketch:type="MSShapeGroup" mask="url(#mask-2)"></path>
                        <path d="M403.1538,308.2561 L402.2568,305.8761 L401.3268,308.2561 L403.1538,308.2561 Z M402.5228,305.4351 L404.3428,310.0751 L403.8688,310.0751 L403.3028,308.6331 L401.1908,308.6331 L400.6318,310.0751 L400.1638,310.0751 L402.0288,305.4351 L402.5228,305.4351 Z" id="Fill-17" fill="#FFFFFF" sketch:type="MSShapeGroup" mask="url(#mask-2)"></path>
                        <path d="M405.2085,305.4348 L405.2085,309.6988 L407.8085,309.6988 L407.8085,310.0758 L404.7665,310.0758 L404.7665,305.4348 L405.2085,305.4348 Z" id="Fill-18" fill="#FFFFFF" sketch:type="MSShapeGroup" mask="url(#mask-2)"></path>
                        <path d="M410.8374,305.4348 L410.8374,305.8118 L409.2194,305.8118 L409.2194,310.0758 L408.7764,310.0758 L408.7764,305.8118 L407.1644,305.8118 L407.1644,305.4348 L410.8374,305.4348 Z" id="Fill-19" fill="#FFFFFF" sketch:type="MSShapeGroup" mask="url(#mask-2)"></path>
                        <path d="M411.7144,305.4348 L411.7144,307.4498 L414.4704,307.4498 L414.4704,305.4348 L414.9124,305.4348 L414.9124,310.0758 L414.4704,310.0758 L414.4704,307.8268 L411.7144,307.8268 L411.7144,310.0758 L411.2724,310.0758 L411.2724,305.4348 L411.7144,305.4348 Z" id="Fill-20" fill="#FFFFFF" sketch:type="MSShapeGroup" mask="url(#mask-2)"></path>
                        <path d="M420.1382,308.2561 L419.2412,305.8761 L418.3112,308.2561 L420.1382,308.2561 Z M419.5072,305.4351 L421.3272,310.0751 L420.8532,310.0751 L420.2872,308.6331 L418.1752,308.6331 L417.6162,310.0751 L417.1482,310.0751 L419.0132,305.4351 L419.5072,305.4351 Z" id="Fill-21" fill="#FFFFFF" sketch:type="MSShapeGroup" mask="url(#mask-2)"></path>
                        <path d="M424.9512,306.3606 C424.8622,306.2196 424.7542,306.1016 424.6272,306.0066 C424.4992,305.9116 424.3572,305.8396 424.2042,305.7896 C424.0502,305.7396 423.8892,305.7146 423.7202,305.7146 C423.4122,305.7146 423.1472,305.7726 422.9272,305.8896 C422.7062,306.0066 422.5242,306.1616 422.3842,306.3546 C422.2432,306.5476 422.1382,306.7646 422.0722,307.0076 C422.0052,307.2506 421.9722,307.4996 421.9722,307.7556 C421.9722,308.0066 422.0052,308.2556 422.0722,308.4996 C422.1382,308.7446 422.2432,308.9636 422.3842,309.1556 C422.5242,309.3486 422.7062,309.5046 422.9272,309.6206 C423.1472,309.7376 423.4122,309.7966 423.7202,309.7966 C423.9362,309.7966 424.1322,309.7566 424.3052,309.6786 C424.4772,309.6006 424.6282,309.4956 424.7532,309.3606 C424.8792,309.2266 424.9802,309.0696 425.0582,308.8896 C425.1372,308.7096 425.1862,308.5156 425.2082,308.3076 L425.6502,308.3076 C425.6202,308.5936 425.5532,308.8516 425.4482,309.0816 C425.3452,309.3106 425.2102,309.5066 425.0462,309.6666 C424.8812,309.8266 424.6872,309.9506 424.4642,310.0366 C424.2412,310.1236 423.9932,310.1666 423.7202,310.1666 C423.3552,310.1666 423.0362,310.1006 422.7612,309.9676 C422.4852,309.8366 422.2572,309.6596 422.0752,309.4386 C421.8942,309.2176 421.7572,308.9626 421.6662,308.6726 C421.5762,308.3816 421.5302,308.0756 421.5302,307.7556 C421.5302,307.4346 421.5762,307.1296 421.6662,306.8396 C421.7572,306.5476 421.8942,306.2916 422.0752,306.0686 C422.2572,305.8446 422.4852,305.6676 422.7612,305.5356 C423.0362,305.4036 423.3552,305.3376 423.7202,305.3376 C423.9402,305.3376 424.1562,305.3696 424.3662,305.4346 C424.5762,305.4996 424.7672,305.5956 424.9382,305.7236 C425.1092,305.8516 425.2532,306.0086 425.3672,306.1956 C425.4822,306.3816 425.5552,306.5956 425.5852,306.8396 L425.1432,306.8396 C425.1042,306.6616 425.0402,306.5026 424.9512,306.3606" id="Fill-22" fill="#FFFFFF" sketch:type="MSShapeGroup" mask="url(#mask-2)"></path>
                        <path d="M429.5264,306.3606 C429.4374,306.2196 429.3294,306.1016 429.2024,306.0066 C429.0744,305.9116 428.9324,305.8396 428.7794,305.7896 C428.6254,305.7396 428.4644,305.7146 428.2954,305.7146 C427.9874,305.7146 427.7224,305.7726 427.5024,305.8896 C427.2814,306.0066 427.0994,306.1616 426.9594,306.3546 C426.8184,306.5476 426.7134,306.7646 426.6474,307.0076 C426.5804,307.2506 426.5474,307.4996 426.5474,307.7556 C426.5474,308.0066 426.5804,308.2556 426.6474,308.4996 C426.7134,308.7446 426.8184,308.9636 426.9594,309.1556 C427.0994,309.3486 427.2814,309.5046 427.5024,309.6206 C427.7224,309.7376 427.9874,309.7966 428.2954,309.7966 C428.5114,309.7966 428.7074,309.7566 428.8804,309.6786 C429.0524,309.6006 429.2034,309.4956 429.3284,309.3606 C429.4544,309.2266 429.5554,309.0696 429.6334,308.8896 C429.7124,308.7096 429.7614,308.5156 429.7834,308.3076 L430.2254,308.3076 C430.1954,308.5936 430.1284,308.8516 430.0234,309.0816 C429.9204,309.3106 429.7854,309.5066 429.6214,309.6666 C429.4564,309.8266 429.2624,309.9506 429.0394,310.0366 C428.8164,310.1236 428.5684,310.1666 428.2954,310.1666 C427.9304,310.1666 427.6114,310.1006 427.3364,309.9676 C427.0604,309.8366 426.8324,309.6596 426.6504,309.4386 C426.4684,309.2176 426.3324,308.9626 426.2414,308.6726 C426.1504,308.3816 426.1044,308.0756 426.1044,307.7556 C426.1044,307.4346 426.1504,307.1296 426.2414,306.8396 C426.3324,306.5476 426.4684,306.2916 426.6504,306.0686 C426.8324,305.8446 427.0604,305.6676 427.3364,305.5356 C427.6114,305.4036 427.9304,305.3376 428.2954,305.3376 C428.5154,305.3376 428.7314,305.3696 428.9414,305.4346 C429.1514,305.4996 429.3424,305.5956 429.5134,305.7236 C429.6844,305.8516 429.8284,306.0086 429.9424,306.1956 C430.0574,306.3816 430.1304,306.5956 430.1604,306.8396 L429.7184,306.8396 C429.6794,306.6616 429.6154,306.5026 429.5264,306.3606" id="Fill-23" fill="#FFFFFF" sketch:type="MSShapeGroup" mask="url(#mask-2)"></path>
                        <path d="M434.1064,305.4348 L434.1064,305.8118 L431.3434,305.8118 L431.3434,307.4888 L433.9304,307.4888 L433.9304,307.8658 L431.3434,307.8658 L431.3434,309.6988 L434.1384,309.6988 L434.1384,310.0758 L430.9014,310.0758 L430.9014,305.4348 L434.1064,305.4348 Z" id="Fill-24" fill="#FFFFFF" sketch:type="MSShapeGroup" mask="url(#mask-2)"></path>
                        <path d="M435.1982,305.4348 L435.1982,309.6988 L437.7982,309.6988 L437.7982,310.0758 L434.7562,310.0758 L434.7562,305.4348 L435.1982,305.4348 Z" id="Fill-25" fill="#FFFFFF" sketch:type="MSShapeGroup" mask="url(#mask-2)"></path>
                        <path d="M441.4512,305.4348 L441.4512,305.8118 L438.6882,305.8118 L438.6882,307.4888 L441.2752,307.4888 L441.2752,307.8658 L438.6882,307.8658 L438.6882,309.6988 L441.4832,309.6988 L441.4832,310.0758 L438.2462,310.0758 L438.2462,305.4348 L441.4512,305.4348 Z" id="Fill-26" fill="#FFFFFF" sketch:type="MSShapeGroup" mask="url(#mask-2)"></path>
                        <path d="M444.1934,307.638 C444.3284,307.638 444.4564,307.617 444.5774,307.576 C444.6984,307.535 444.8044,307.476 444.8954,307.398 C444.9864,307.32 445.0594,307.226 445.1134,307.115 C445.1684,307.004 445.1944,306.877 445.1944,306.735 C445.1944,306.449 445.1124,306.224 444.9484,306.059 C444.7834,305.894 444.5324,305.812 444.1934,305.812 L442.5434,305.812 L442.5434,307.638 L444.1934,307.638 Z M444.2264,305.435 C444.4174,305.435 444.5974,305.458 444.7694,305.506 C444.9404,305.554 445.0894,305.626 445.2174,305.724 C445.3454,305.822 445.4474,305.948 445.5234,306.101 C445.5984,306.255 445.6364,306.436 445.6364,306.644 C445.6364,306.939 445.5604,307.194 445.4094,307.41 C445.2574,307.627 445.0324,307.766 444.7334,307.826 L444.7334,307.84 C444.8844,307.862 445.0104,307.902 445.1104,307.96 C445.2104,308.019 445.2914,308.093 445.3544,308.184 C445.4174,308.276 445.4624,308.38 445.4904,308.499 C445.5184,308.618 445.5374,308.747 445.5464,308.886 C445.5494,308.964 445.5544,309.06 445.5584,309.172 C445.5634,309.285 445.5724,309.399 445.5854,309.514 C445.5974,309.628 445.6184,309.737 445.6464,309.838 C445.6744,309.941 445.7134,310.02 445.7604,310.076 L445.2724,310.076 C445.2474,310.033 445.2264,309.98 445.2114,309.916 C445.1964,309.854 445.1854,309.788 445.1784,309.721 C445.1724,309.655 445.1674,309.588 445.1624,309.523 C445.1584,309.458 445.1534,309.402 445.1494,309.354 C445.1404,309.19 445.1274,309.026 445.1074,308.864 C445.0884,308.701 445.0464,308.556 444.9834,308.428 C444.9214,308.3 444.8304,308.198 444.7114,308.119 C444.5914,308.041 444.4274,308.006 444.2194,308.015 L442.5434,308.015 L442.5434,310.076 L442.1004,310.076 L442.1004,305.435 L444.2264,305.435 Z" id="Fill-27" fill="#FFFFFF" sketch:type="MSShapeGroup" mask="url(#mask-2)"></path>
                        <path d="M448.9199,308.2561 L448.0229,305.8761 L447.0929,308.2561 L448.9199,308.2561 Z M448.2889,305.4351 L450.1089,310.0751 L449.6349,310.0751 L449.0689,308.6331 L446.9569,308.6331 L446.3979,310.0751 L445.9299,310.0751 L447.7949,305.4351 L448.2889,305.4351 Z" id="Fill-28" fill="#FFFFFF" sketch:type="MSShapeGroup" mask="url(#mask-2)"></path>
                        <path d="M453.2676,305.4348 L453.2676,305.8118 L451.6496,305.8118 L451.6496,310.0758 L451.2066,310.0758 L451.2066,305.8118 L449.5946,305.8118 L449.5946,305.4348 L453.2676,305.4348 Z" id="Fill-29" fill="#FFFFFF" sketch:type="MSShapeGroup" mask="url(#mask-2)"></path>
                        <path d="M453.999,308.4993 C454.066,308.7443 454.17,308.9633 454.311,309.1553 C454.452,309.3493 454.633,309.5043 454.853,309.6203 C455.075,309.7373 455.339,309.7963 455.646,309.7963 C455.954,309.7963 456.218,309.7373 456.437,309.6203 C456.655,309.5043 456.835,309.3493 456.977,309.1553 C457.117,308.9633 457.221,308.7443 457.288,308.4993 C457.355,308.2553 457.389,308.0063 457.389,307.7553 C457.389,307.4993 457.355,307.2503 457.288,307.0083 C457.221,306.7653 457.117,306.5473 456.977,306.3543 C456.835,306.1613 456.655,306.0073 456.437,305.8903 C456.218,305.7723 455.954,305.7143 455.646,305.7143 C455.339,305.7143 455.075,305.7723 454.853,305.8903 C454.633,306.0073 454.452,306.1613 454.311,306.3543 C454.17,306.5473 454.066,306.7653 453.999,307.0083 C453.932,307.2503 453.898,307.4993 453.898,307.7553 C453.898,308.0063 453.932,308.2553 453.999,308.4993 M453.593,306.8393 C453.684,306.5483 453.82,306.2913 454.002,306.0683 C454.185,305.8453 454.413,305.6673 454.688,305.5353 C454.963,305.4033 455.283,305.3373 455.646,305.3373 C456.011,305.3373 456.329,305.4033 456.603,305.5353 C456.875,305.6673 457.103,305.8453 457.285,306.0683 C457.467,306.2913 457.603,306.5483 457.694,306.8393 C457.785,307.1293 457.831,307.4353 457.831,307.7553 C457.831,308.0753 457.785,308.3813 457.694,308.6723 C457.603,308.9623 457.467,309.2183 457.285,309.4383 C457.103,309.6593 456.875,309.8363 456.603,309.9683 C456.329,310.1013 456.011,310.1663 455.646,310.1663 C455.283,310.1663 454.963,310.1013 454.688,309.9683 C454.413,309.8363 454.185,309.6593 454.002,309.4383 C453.82,309.2183 453.684,308.9623 453.593,308.6723 C453.502,308.3813 453.456,308.0753 453.456,307.7553 C453.456,307.4353 453.502,307.1293 453.593,306.8393" id="Fill-30" fill="#FFFFFF" sketch:type="MSShapeGroup" mask="url(#mask-2)"></path>
                        <path d="M460.6123,307.638 C460.7473,307.638 460.8753,307.617 460.9963,307.576 C461.1173,307.535 461.2233,307.476 461.3143,307.398 C461.4053,307.32 461.4783,307.226 461.5323,307.115 C461.5873,307.004 461.6133,306.877 461.6133,306.735 C461.6133,306.449 461.5313,306.224 461.3673,306.059 C461.2023,305.894 460.9513,305.812 460.6123,305.812 L458.9623,305.812 L458.9623,307.638 L460.6123,307.638 Z M460.6453,305.435 C460.8363,305.435 461.0163,305.458 461.1883,305.506 C461.3593,305.554 461.5083,305.626 461.6363,305.724 C461.7643,305.822 461.8663,305.948 461.9423,306.101 C462.0173,306.255 462.0553,306.436 462.0553,306.644 C462.0553,306.939 461.9793,307.194 461.8283,307.41 C461.6763,307.627 461.4513,307.766 461.1523,307.826 L461.1523,307.84 C461.3033,307.862 461.4293,307.902 461.5293,307.96 C461.6293,308.019 461.7103,308.093 461.7733,308.184 C461.8363,308.276 461.8813,308.38 461.9093,308.499 C461.9373,308.618 461.9563,308.747 461.9653,308.886 C461.9683,308.964 461.9733,309.06 461.9773,309.172 C461.9823,309.285 461.9913,309.399 462.0043,309.514 C462.0163,309.628 462.0373,309.737 462.0653,309.838 C462.0933,309.941 462.1323,310.02 462.1793,310.076 L461.6913,310.076 C461.6663,310.033 461.6453,309.98 461.6303,309.916 C461.6153,309.854 461.6043,309.788 461.5973,309.721 C461.5913,309.655 461.5863,309.588 461.5813,309.523 C461.5773,309.458 461.5723,309.402 461.5683,309.354 C461.5593,309.19 461.5463,309.026 461.5263,308.864 C461.5073,308.701 461.4653,308.556 461.4023,308.428 C461.3403,308.3 461.2493,308.198 461.1303,308.119 C461.0103,308.041 460.8463,308.006 460.6383,308.015 L458.9623,308.015 L458.9623,310.076 L458.5193,310.076 L458.5193,305.435 L460.6453,305.435 Z" id="Fill-31" fill="#FFFFFF" sketch:type="MSShapeGroup" mask="url(#mask-2)"></path>
                    </g>
                </g>
            </g>
        </g>
    </g>
</svg>